<svg width="186" height="58" viewBox="0 0 186 58" fill="none" xmlns="http://www.w3.org/2000/svg">
<path d="M80.45 0.869995H79.6V57.95H80.45V0.869995Z" fill="black"/>
<path d="M3.57996 44.7999C3.28339 44.8196 2.98608 44.7751 2.70825 44.6695C2.43041 44.5639 2.17856 44.3998 1.96983 44.1882C1.76109 43.9766 1.60037 43.7226 1.49858 43.4433C1.3968 43.1641 1.35634 42.8662 1.37996 42.5699V39.0699H2.15996V42.5699C2.13435 42.7666 2.15269 42.9664 2.21366 43.1551C2.27464 43.3438 2.37673 43.5166 2.51257 43.661C2.64841 43.8055 2.81461 43.918 2.99919 43.9904C3.18377 44.0629 3.38213 44.0934 3.57996 44.0799C3.77644 44.0882 3.97239 44.054 4.15448 43.9798C4.33658 43.9055 4.50056 43.7929 4.63528 43.6497C4.77 43.5064 4.8723 43.3358 4.93522 43.1495C4.99815 42.9632 5.02023 42.7655 4.99996 42.5699V39.0699H5.75996V42.5699C5.77404 42.8648 5.72667 43.1594 5.62086 43.435C5.51504 43.7106 5.3531 43.9612 5.14529 44.1709C4.93749 44.3806 4.68836 44.5448 4.41373 44.6531C4.1391 44.7613 3.84495 44.8114 3.54996 44.7999" fill="black"/>
<path d="M11.14 44.71L8.14002 40.62L8.04002 40.4701C8.04351 40.53 8.04351 40.5901 8.04002 40.6501V44.71H7.27002V39.07H8.00002L10.93 43.07L11.03 43.23C11.0259 43.1701 11.0259 43.11 11.03 43.05V39.05H11.8V44.69H11.19" fill="black"/>
<path d="M14.09 39.0699H13.32V44.7099H14.09V39.0699Z" fill="black"/>
<path d="M17.73 44.7099H17.25L15.25 39.0699H16L17.42 43.1399C17.443 43.2049 17.4598 43.2718 17.47 43.3399V43.1399L19 39.0699H19.73L17.73 44.7099Z" fill="black"/>
<path d="M20.89 44.7099V39.0699H24.04V39.7899H21.66V41.5899H23.99V42.3199H21.66V43.9799H24.19V44.7099H20.89Z" fill="black"/>
<path d="M27.25 39.7901H26.34V41.7301H27.23C27.3695 41.7441 27.5103 41.7286 27.6435 41.6847C27.7766 41.6407 27.899 41.5693 28.0027 41.475C28.1064 41.3807 28.1892 41.2657 28.2455 41.1373C28.3019 41.009 28.3307 40.8702 28.33 40.7301C28.3071 40.4663 28.1806 40.2224 27.9781 40.0518C27.7757 39.8812 27.5138 39.7979 27.25 39.8201M28.62 44.7401L26.34 42.1001V44.7401H25.57V39.0701H27.39C27.6158 39.0563 27.842 39.0892 28.0546 39.1666C28.2671 39.244 28.4615 39.3642 28.6256 39.5199C28.7897 39.6756 28.9201 39.8633 29.0086 40.0715C29.0971 40.2797 29.1418 40.5039 29.14 40.7301C29.1323 41.1546 28.9602 41.5597 28.6599 41.86C28.3597 42.1603 27.9546 42.3324 27.53 42.3401L29.61 44.7101L28.62 44.7401Z" fill="black"/>
<path d="M32.11 44.8C31.5068 44.8115 30.9189 44.6096 30.45 44.23L30.89 43.63C31.225 43.8986 31.6407 44.0466 32.07 44.05C32.64 44.05 33.07 43.8 33.07 43.26C33.07 42.72 32.63 42.52 32.13 42.26C31.33 41.86 30.51 41.5 30.51 40.43C30.5133 40.2293 30.558 40.0315 30.6412 39.8489C30.7244 39.6663 30.8443 39.5028 30.9935 39.3686C31.1427 39.2344 31.318 39.1324 31.5083 39.069C31.6987 39.0056 31.9001 38.9821 32.1 39C32.6443 38.9975 33.1758 39.1654 33.62 39.48L33.2 40.12C32.8862 39.8688 32.4915 39.7407 32.09 39.76C31.65 39.76 31.28 39.98 31.28 40.41C31.28 41.02 31.82 41.23 32.52 41.58C33.22 41.93 33.84 42.3 33.84 43.25C33.841 43.4707 33.7957 43.6892 33.7071 43.8914C33.6185 44.0935 33.4885 44.2749 33.3255 44.4238C33.1625 44.5726 32.9702 44.6857 32.7608 44.7556C32.5514 44.8256 32.3298 44.8509 32.11 44.83" fill="black"/>
<path d="M35.88 39.0699H35.11V44.7099H35.88V39.0699Z" fill="black"/>
<path d="M39.08 39.7899V44.7099H38.31V39.7899H37.16V39.0699H40.28V39.7899H39.08Z" fill="black"/>
<path d="M43.38 38.62H42.64L43.36 37.48H44.1L43.38 38.62ZM41.56 44.71V39.07H44.71V39.79H42.33V41.59H44.66V42.32H42.33V44H44.86V44.73L41.56 44.71Z" fill="black"/>
<path d="M50.78 39.7599H50.13V43.9999H50.64C50.9292 44.0269 51.2209 43.9945 51.4972 43.9046C51.7734 43.8146 52.0283 43.6692 52.2462 43.4771C52.4642 43.285 52.6405 43.0504 52.7644 42.7877C52.8883 42.5249 52.9572 42.2396 52.9667 41.9493C52.9763 41.6589 52.9264 41.3697 52.82 41.0994C52.7137 40.8291 52.5532 40.5833 52.3483 40.3774C52.1435 40.1714 51.8987 40.0094 51.629 39.9015C51.3593 39.7936 51.0704 39.742 50.78 39.7499M50.78 44.7499H49.36V39.0699H50.8C51.1855 39.0362 51.5738 39.084 51.9396 39.21C52.3055 39.3361 52.6407 39.5377 52.9236 39.8017C53.2065 40.0658 53.4308 40.3864 53.5817 40.7427C53.7327 41.099 53.8071 41.483 53.8 41.8699C53.8028 42.2635 53.7235 42.6533 53.5671 43.0145C53.4107 43.3757 53.1808 43.7003 52.8918 43.9676C52.6029 44.2348 52.2614 44.4389 51.8892 44.5667C51.517 44.6946 51.1221 44.7433 50.73 44.7099L50.78 44.7499Z" fill="black"/>
<path d="M57.31 44.7999C57.0134 44.8196 56.7161 44.7751 56.4383 44.6695C56.1604 44.5639 55.9086 44.3998 55.6999 44.1882C55.4911 43.9766 55.3304 43.7226 55.2286 43.4433C55.1268 43.1641 55.0864 42.8662 55.11 42.5699V39.0699H55.88V42.5699C55.856 42.7671 55.8758 42.9672 55.9381 43.1558C56.0003 43.3444 56.1033 43.517 56.2399 43.6612C56.3765 43.8054 56.5432 43.9177 56.7282 43.9901C56.9132 44.0625 57.1118 44.0932 57.31 44.0799C57.5081 44.0912 57.7063 44.0592 57.8908 43.9863C58.0754 43.9134 58.2419 43.8012 58.3788 43.6576C58.5158 43.514 58.6199 43.3424 58.684 43.1546C58.7481 42.9668 58.7706 42.7673 58.75 42.5699V39.0699H59.52V42.5699C59.5341 42.8648 59.4867 43.1594 59.3809 43.435C59.2751 43.7106 59.1131 43.9612 58.9053 44.1709C58.6975 44.3806 58.4484 44.5448 58.1738 44.6531C57.8991 44.7613 57.605 44.8114 57.31 44.7999Z" fill="black"/>
<path d="M60.1 34.49H0.799988V35.3H60.1V34.49Z" fill="black"/>
<path d="M1.39996 54.52V48.88H2.17996V53.79H4.31996V54.52H1.39996Z" fill="black"/>
<path d="M7.99999 54.61C7.70392 54.6293 7.40715 54.585 7.12962 54.4801C6.85208 54.3752 6.6002 54.2121 6.39087 54.0019C6.18155 53.7916 6.01964 53.539 5.916 53.261C5.81236 52.9829 5.7694 52.686 5.78999 52.39V48.88H6.56999V52.39C6.54577 52.5868 6.5655 52.7864 6.62777 52.9746C6.69003 53.1628 6.79328 53.3349 6.93006 53.4784C7.06685 53.6218 7.23377 53.7332 7.41878 53.8044C7.6038 53.8756 7.80231 53.9048 7.99999 53.89C8.19761 53.9027 8.39562 53.8722 8.5802 53.8004C8.76477 53.7287 8.93146 53.6175 9.0686 53.4747C9.20574 53.3318 9.31003 53.1607 9.37418 52.9734C9.43832 52.786 9.46079 52.5869 9.43999 52.39V48.88H10.21V52.39C10.2242 52.6844 10.1768 52.9786 10.0709 53.2537C9.96498 53.5288 9.80286 53.7788 9.59489 53.9877C9.38692 54.1966 9.13767 54.3599 8.86305 54.467C8.58843 54.5742 8.29449 54.6229 7.99999 54.61Z" fill="black"/>
<path d="M15.6 54.52L14.34 52.59C14.25 52.46 14.1 52.2 14.1 52.2C14.0207 52.3412 13.9339 52.478 13.84 52.61L12.59 54.52H11.7L13.65 51.52L11.92 48.86H12.87L14 50.55L14.17 50.84C14.17 50.84 14.26 50.68 14.36 50.53L15.45 48.88H16.34L14.57 51.5L16.57 54.5H15.6" fill="black"/>
<path d="M18.06 54.52V48.88H21.22V49.6H18.83V51.4H21.16V52.13H18.83V53.79H21.36V54.52H18.06Z" fill="black"/>
<path d="M28.08 54.52V50.37C28.0749 50.2968 28.0749 50.2233 28.08 50.15L28 50.29L26.23 52.67H25.92L24.13 50.35C24.1032 50.3086 24.0798 50.2651 24.06 50.22C24.06 50.22 24.06 50.33 24.06 50.43V54.52H23.29V48.88H24L26.12 51.64L28.19 48.88H28.87V54.52H28.1" fill="black"/>
<path d="M32.68 52.12H31.77V53.79H32.61C33.3 53.79 33.61 53.45 33.61 52.93C33.6082 52.8128 33.5816 52.6973 33.532 52.5911C33.4823 52.4849 33.4107 52.3904 33.3219 52.3139C33.2331 52.2374 33.1291 52.1805 33.0167 52.1471C32.9044 52.1137 32.7862 52.1045 32.67 52.12M32.35 49.6H31.76V51.39H32.28C33.12 51.39 33.28 50.88 33.28 50.39C33.28 49.9 33 49.6 32.36 49.6H32.35ZM32.68 54.52H31V48.88H32.49C32.6962 48.8591 32.9045 48.8815 33.1016 48.9457C33.2987 49.0099 33.4802 49.1146 33.6346 49.2529C33.7889 49.3913 33.9127 49.5603 33.998 49.7492C34.0833 49.9381 34.1283 50.1427 34.13 50.35C34.1449 50.6032 34.0926 50.8559 33.9785 51.0824C33.8643 51.3089 33.6924 51.5013 33.48 51.64C33.7654 51.7347 34.0146 51.9151 34.1936 52.1568C34.3726 52.3984 34.4726 52.6894 34.48 52.99C34.4781 53.2132 34.4284 53.4334 34.3342 53.6358C34.2399 53.8381 34.1033 54.0179 33.9337 54.1629C33.764 54.3079 33.5651 54.4149 33.3506 54.4765C33.136 54.5381 32.9108 54.5529 32.69 54.52H32.68Z" fill="black"/>
<path d="M38.6 49.5401C38.3184 49.5294 38.0377 49.5783 37.7764 49.6837C37.515 49.7891 37.2789 49.9485 37.0835 50.1515C36.888 50.3545 36.7377 50.5965 36.6423 50.8616C36.5469 51.1268 36.5086 51.4091 36.53 51.69C36.5247 51.9706 36.5749 52.2494 36.6777 52.5105C36.7805 52.7716 36.9338 53.0099 37.129 53.2115C37.3241 53.4131 37.5572 53.5742 37.8148 53.6855C38.0723 53.7968 38.3494 53.8561 38.63 53.8601C38.913 53.8619 39.1935 53.8057 39.454 53.6948C39.7144 53.584 39.9494 53.4209 40.1444 53.2156C40.3393 53.0104 40.4901 52.7673 40.5874 52.5015C40.6847 52.2356 40.7264 51.9527 40.71 51.67C40.7289 51.3872 40.6874 51.1035 40.5883 50.8378C40.4892 50.5722 40.3348 50.3307 40.1353 50.1292C39.9358 49.9278 39.6957 49.7711 39.431 49.6695C39.1663 49.568 38.883 49.5238 38.6 49.5401ZM38.6 54.6101C38.2155 54.6169 37.8337 54.5459 37.4775 54.4014C37.1212 54.2568 36.7979 54.0416 36.5269 53.7688C36.256 53.496 36.0431 53.1712 35.9009 52.814C35.7588 52.4567 35.6905 52.0744 35.7 51.69C35.7 50.9236 36.0044 50.1885 36.5464 49.6465C37.0884 49.1045 37.8235 48.8 38.59 48.8C39.3564 48.8 40.0915 49.1045 40.6335 49.6465C41.1755 50.1885 41.48 50.9236 41.48 51.69C41.4866 52.0695 41.4179 52.4464 41.2779 52.7991C41.1379 53.1518 40.9293 53.4732 40.6643 53.7447C40.3992 54.0163 40.083 54.2326 39.7338 54.3811C39.3846 54.5297 39.0094 54.6075 38.63 54.6101H38.6Z" fill="black"/>
<path d="M45.24 54.61C44.9411 54.6355 44.6403 54.5958 44.3583 54.4935C44.0763 54.3912 43.8199 54.2289 43.6069 54.0178C43.3938 53.8066 43.2292 53.5517 43.1244 53.2706C43.0196 52.9896 42.9772 52.6891 43 52.39V48.88H43.78V52.39C43.756 52.5859 43.7756 52.7846 43.8373 52.972C43.899 53.1595 44.0013 53.3309 44.1369 53.4742C44.2726 53.6175 44.4382 53.7291 44.622 53.801C44.8058 53.8729 45.0031 53.9032 45.2 53.89C45.398 53.9025 45.5964 53.8719 45.7814 53.8002C45.9664 53.7286 46.1336 53.6176 46.2715 53.4749C46.4094 53.3323 46.5146 53.1614 46.58 52.9741C46.6453 52.7867 46.6692 52.5875 46.65 52.39V48.88H47.41V52.39C47.4242 52.6844 47.3768 52.9786 47.2709 53.2537C47.165 53.5288 47.0029 53.7788 46.7949 53.9877C46.587 54.1966 46.3377 54.3599 46.0631 54.467C45.7885 54.5742 45.4945 54.6229 45.2 54.61" fill="black"/>
<path d="M50.89 49.6H50V51.54H50.9C51.0474 51.577 51.2014 51.5798 51.3501 51.5484C51.4988 51.5169 51.6384 51.4519 51.7583 51.3584C51.8781 51.2649 51.9751 51.1453 52.0417 51.0087C52.1084 50.8721 52.1431 50.7221 52.1431 50.57C52.1431 50.418 52.1084 50.268 52.0417 50.1314C51.9751 49.9948 51.8781 49.8752 51.7583 49.7816C51.6384 49.6881 51.4988 49.6232 51.3501 49.5917C51.2014 49.5602 51.0474 49.5631 50.9 49.6M52.27 54.52L50 51.88V54.52H49.23V48.88H51C51.4349 48.8615 51.8595 49.0164 52.1801 49.3109C52.5008 49.6053 52.6914 50.0151 52.71 50.45C52.7285 50.885 52.5736 51.3095 52.2791 51.6302C51.9847 51.9509 51.5749 52.1415 51.14 52.16L53.22 54.52H52.27Z" fill="black"/>
<path d="M57 54.61C56.2353 54.6021 55.5048 54.2913 54.9688 53.7459C54.4327 53.2004 54.1347 52.4647 54.14 51.7C54.1278 51.3187 54.193 50.939 54.3318 50.5837C54.4706 50.2284 54.68 49.905 54.9473 49.633C55.2147 49.3609 55.5344 49.146 55.8872 49.0011C56.2401 48.8562 56.6186 48.7844 57 48.79C57.7649 48.7688 58.509 49.0406 59.08 49.55L58.61 50.12C58.1643 49.7329 57.5902 49.526 57 49.54C56.7224 49.539 56.4477 49.5958 56.1932 49.7067C55.9388 49.8177 55.7102 49.9804 55.5221 50.1845C55.334 50.3886 55.1904 50.6297 55.1005 50.8923C55.0106 51.1549 54.9764 51.4334 55 51.71C54.9997 52.2683 55.2166 52.8048 55.6048 53.206C55.993 53.6073 56.522 53.8418 57.08 53.86C57.4434 53.8781 57.8027 53.7764 58.1026 53.5704C58.4025 53.3645 58.6265 53.0656 58.74 52.72H57V52H59.6C59.6026 52.3426 59.5373 52.6824 59.4077 52.9996C59.2781 53.3168 59.0868 53.6051 58.845 53.8479C58.6032 54.0906 58.3156 54.283 57.9989 54.4138C57.6822 54.5446 57.3427 54.6113 57 54.61Z" fill="black"/>
<path d="M44.61 5.61003C44.2095 5.61074 43.817 5.49853 43.4774 5.28627C43.1377 5.07402 42.8649 4.77032 42.69 4.41003H42.44V28.57C42.4773 29.1188 42.7216 29.6329 43.1235 30.0084C43.5255 30.3839 44.055 30.5928 44.605 30.5928C45.155 30.5928 45.6846 30.3839 46.0865 30.0084C46.4884 29.6329 46.7327 29.1188 46.77 28.57V4.41003H46.52C46.3468 4.76953 46.0757 5.07286 45.7379 5.28515C45.4 5.49743 45.009 5.61004 44.61 5.61003Z" fill="black"/>
<path d="M29.08 11C28.6809 11 28.29 10.8874 27.9521 10.6751C27.6143 10.4628 27.3431 10.1595 27.17 9.8H26.92V28.57C26.8998 28.8653 26.9406 29.1617 27.0398 29.4406C27.139 29.7195 27.2945 29.9751 27.4966 30.1914C27.6986 30.4077 27.943 30.5802 28.2146 30.6981C28.4861 30.816 28.779 30.8769 29.075 30.8769C29.371 30.8769 29.6639 30.816 29.9354 30.6981C30.2069 30.5802 30.4513 30.4077 30.6534 30.1914C30.8555 29.9751 31.0109 29.7195 31.1101 29.4406C31.2093 29.1617 31.2501 28.8653 31.23 28.57V9.75H31C30.8333 10.1204 30.5638 10.4351 30.2234 10.6567C29.883 10.8783 29.4861 10.9975 29.08 11Z" fill="black"/>
<path d="M26.92 6.60995C26.92 6.18274 27.0467 5.76513 27.284 5.40992C27.5214 5.05471 27.8587 4.77786 28.2534 4.61437C28.6481 4.45089 29.0824 4.40811 29.5014 4.49146C29.9204 4.5748 30.3053 4.78052 30.6073 5.0826C30.9094 5.38468 31.1151 5.76956 31.1985 6.18856C31.2818 6.60756 31.2391 7.04186 31.0756 7.43655C30.9121 7.83124 30.6352 8.16858 30.28 8.40593C29.9248 8.64327 29.5072 8.76995 29.08 8.76995C28.5071 8.76995 27.9577 8.54238 27.5526 8.1373C27.1476 7.73222 26.92 7.18282 26.92 6.60995Z" fill="black"/>
<path d="M3.54001 30.73C2.96714 30.73 2.41773 30.5024 2.01266 30.0974C1.60758 29.6923 1.38 29.1429 1.38 28.57V11.91C1.38 11.3371 1.60758 10.7877 2.01266 10.3826C2.41773 9.97757 2.96714 9.75 3.54001 9.75C4.11287 9.75 4.66228 9.97757 5.06736 10.3826C5.47243 10.7877 5.70001 11.3371 5.70001 11.91V30.73H3.54001Z" fill="black"/>
<path d="M6.85999 30.73V11.91C6.85999 11.3371 7.08756 10.7877 7.49263 10.3826C7.89771 9.97757 8.44712 9.75 9.01999 9.75C9.59285 9.75 10.1423 9.97757 10.5473 10.3826C10.9524 10.7877 11.18 11.3371 11.18 11.91V30.73C10.18 30.73 9.91998 29.54 9.91998 28.39C9.9241 28.9813 9.70322 29.5521 9.30213 29.9866C8.90104 30.4211 8.34974 30.6869 7.75998 30.73H6.85999Z" fill="black"/>
<path d="M21.8 9.75C22.087 9.74469 22.3722 9.79663 22.6389 9.9028C22.9056 10.009 23.1484 10.1672 23.3533 10.3683C23.5581 10.5694 23.7208 10.8094 23.8318 11.0741C23.9429 11.3388 24 11.623 24 11.91V28.57C24 29.1429 23.7724 29.6923 23.3673 30.0974C22.9623 30.5024 22.4129 30.73 21.84 30.73C21.2671 30.73 20.7177 30.5024 20.3126 30.0974C19.9076 29.6923 19.68 29.1429 19.68 28.57V9.75H21.8Z" fill="black"/>
<path d="M18.48 9.75V28.57C18.48 29.1429 18.2524 29.6923 17.8473 30.0974C17.4422 30.5024 16.8928 30.73 16.32 30.73C15.7471 30.73 15.1977 30.5024 14.7926 30.0974C14.3875 29.6923 14.16 29.1429 14.16 28.57V9.75C15.16 9.75 15.42 10.94 15.42 12.09C15.4133 11.4996 15.632 10.9289 16.0314 10.4941C16.4309 10.0593 16.9811 9.79323 17.57 9.75H18.48Z" fill="black"/>
<path d="M51.9 30.73C51.3289 30.7274 50.782 30.4987 50.3791 30.0939C49.9762 29.6891 49.75 29.1412 49.75 28.57V11.91C49.7299 11.6147 49.7707 11.3184 49.8698 11.0394C49.969 10.7605 50.1245 10.505 50.3266 10.2886C50.5286 10.0723 50.773 9.89984 51.0446 9.78192C51.3161 9.664 51.609 9.60315 51.905 9.60315C52.201 9.60315 52.4939 9.664 52.7654 9.78192C53.037 9.89984 53.2813 10.0723 53.4834 10.2886C53.6855 10.505 53.841 10.7605 53.9402 11.0394C54.0393 11.3184 54.0801 11.6147 54.06 11.91V30.73H51.9Z" fill="black"/>
<path d="M55.23 30.73V11.91C55.2098 11.6147 55.2506 11.3184 55.3498 11.0394C55.449 10.7605 55.6045 10.505 55.8065 10.2886C56.0086 10.0723 56.253 9.89984 56.5245 9.78192C56.7961 9.664 57.0889 9.60315 57.385 9.60315C57.681 9.60315 57.9739 9.664 58.2454 9.78192C58.5169 9.89984 58.7613 10.0723 58.9634 10.2886C59.1655 10.505 59.3209 10.7605 59.4201 11.0394C59.5193 11.3184 59.5601 11.6147 59.54 11.91V30.73C58.54 30.73 58.29 29.54 58.29 28.39C58.2941 28.9814 58.0732 29.5521 57.6721 29.9866C57.271 30.4211 56.7197 30.6869 56.13 30.73H55.23Z" fill="black"/>
<path d="M34.69 28.57C34.688 28.1404 34.8136 27.7199 35.0508 27.3617C35.288 27.0035 35.6263 26.7239 36.0226 26.5581C36.4189 26.3923 36.8556 26.3479 37.2771 26.4305C37.6987 26.5131 38.0863 26.719 38.3908 27.0221C38.6953 27.3251 38.903 27.7118 38.9875 28.133C39.0721 28.5542 39.0297 28.991 38.8657 29.3881C38.7018 29.7852 38.4237 30.1247 38.0666 30.3636C37.7095 30.6025 37.2896 30.73 36.86 30.73C36.2862 30.73 35.7357 30.5028 35.3291 30.098C34.9224 29.6932 34.6926 29.1438 34.69 28.57Z" fill="black"/>
<path d="M99.48 48.05V44.58H100V47.58H101.3V48.03L99.48 48.05Z" fill="black"/>
<path d="M104.28 47.3C104.218 47.4597 104.124 47.6051 104.003 47.7271C103.883 47.8492 103.739 47.9455 103.58 48.01C103.407 48.0738 103.224 48.1076 103.04 48.11C102.855 48.1134 102.671 48.0794 102.5 48.01C102.341 47.9537 102.197 47.8612 102.08 47.74C101.957 47.6187 101.861 47.4719 101.8 47.31C101.733 47.1276 101.699 46.9344 101.7 46.74V44.58H102.18V46.74C102.175 46.8832 102.198 47.0261 102.25 47.16C102.29 47.2698 102.355 47.369 102.44 47.45C102.522 47.5207 102.617 47.575 102.72 47.61C102.826 47.6251 102.934 47.6251 103.04 47.61C103.149 47.6252 103.261 47.6252 103.37 47.61C103.471 47.5721 103.566 47.5181 103.65 47.45C103.736 47.3678 103.804 47.2691 103.85 47.16C103.901 47.0261 103.925 46.8832 103.92 46.74V44.58H104.39V46.74C104.391 46.9321 104.354 47.1226 104.28 47.3Z" fill="black"/>
<path d="M107.24 48.0499L106.47 46.8699L106.41 46.7699C106.395 46.7341 106.374 46.7005 106.35 46.6699L106.29 46.7699L106.22 46.8799L105.46 48.0499H104.92L106.11 46.2199L105 44.5799H105.58L106.24 45.5799L106.35 45.7599C106.35 45.6799 106.43 45.6199 106.46 45.5699L107.12 44.5699H107.66L106.66 46.1899L107.86 48.0399L107.24 48.0499Z" fill="black"/>
<path d="M108.3 48.05V44.58H110.22V45H108.77V46.09H110.19V46.54H108.77V47.54H110.31V47.99L108.3 48.05Z" fill="black"/>
<path d="M113.8 48.05V45.5C113.796 45.4567 113.796 45.4132 113.8 45.37L113.75 45.45L112.67 46.92H112.48L111.4 45.49V45.41C111.404 45.4532 111.404 45.4967 111.4 45.54V48.05H110.93V44.58H111.33L112.62 46.28L113.88 44.58H114.3V48.05H113.8Z" fill="black"/>
<path d="M117 47.44C116.954 47.558 116.884 47.6653 116.795 47.7548C116.705 47.8444 116.598 47.9142 116.48 47.96C116.328 48.0243 116.165 48.055 116 48.05H115V44.58H115.91C116.046 44.582 116.181 44.6057 116.31 44.65C116.426 44.6854 116.532 44.747 116.62 44.83C116.71 44.9108 116.781 45.0096 116.83 45.12C116.88 45.2367 116.904 45.363 116.9 45.49C116.908 45.6602 116.87 45.8296 116.79 45.98C116.721 46.1002 116.625 46.2028 116.51 46.28C116.582 46.3009 116.65 46.3348 116.71 46.38C116.78 46.432 116.844 46.4924 116.9 46.56C116.956 46.6376 117.003 46.7215 117.04 46.81C117.073 46.9066 117.09 47.0079 117.09 47.11C117.079 47.2243 117.049 47.3359 117 47.44ZM116.24 45.17C116.114 45.0737 115.958 45.0274 115.8 45.04H115.44V46.12H115.76C115.863 46.1377 115.967 46.1377 116.07 46.12C116.144 46.0902 116.21 46.042 116.26 45.98C116.307 45.9246 116.341 45.8598 116.36 45.79C116.37 45.7203 116.37 45.6496 116.36 45.58C116.377 45.5071 116.376 45.4309 116.355 45.359C116.333 45.2871 116.294 45.2219 116.24 45.17ZM116.41 46.71C116.296 46.6139 116.149 46.5639 116 46.57H115.44V47.57H116C116.169 47.5824 116.336 47.5326 116.47 47.43C116.52 47.3785 116.559 47.3174 116.585 47.2504C116.611 47.1833 116.623 47.1117 116.62 47.04C116.613 46.9725 116.59 46.9076 116.554 46.8503C116.517 46.7931 116.468 46.745 116.41 46.71Z" fill="black"/>
<path d="M120.84 46.9999C120.753 47.2134 120.623 47.4072 120.46 47.5699C120.303 47.7308 120.116 47.8598 119.91 47.9499C119.692 48.0423 119.457 48.09 119.22 48.0899C118.986 48.09 118.755 48.0423 118.54 47.9499C118.326 47.8681 118.132 47.7421 117.97 47.5801C117.808 47.4182 117.682 47.2239 117.6 47.0099C117.507 46.7814 117.459 46.5368 117.46 46.2899C117.46 46.0474 117.504 45.8068 117.59 45.5799C117.686 45.3608 117.825 45.1634 118 44.9999C118.155 44.8369 118.342 44.7075 118.55 44.6199C119.006 44.4405 119.514 44.4405 119.97 44.6199C120.181 44.7063 120.372 44.8357 120.53 44.9999C120.682 45.1642 120.803 45.3537 120.89 45.5599C120.974 45.7872 121.018 46.0275 121.02 46.2699C121.013 46.5233 120.951 46.7722 120.84 46.9999ZM120.39 45.7599C120.333 45.6063 120.245 45.4665 120.13 45.3499C120.014 45.229 119.875 45.1337 119.72 45.0699C119.558 45.0051 119.385 44.9712 119.21 44.9699C119.035 44.9702 118.862 45.0041 118.7 45.0699C118.55 45.1356 118.414 45.2304 118.301 45.3489C118.188 45.4673 118.099 45.607 118.04 45.7599C117.978 45.9298 117.948 46.1093 117.95 46.2899C117.946 46.4716 117.981 46.652 118.05 46.8199C118.115 46.977 118.21 47.1198 118.33 47.2399C118.447 47.3598 118.586 47.455 118.74 47.5199C118.891 47.5883 119.055 47.6225 119.22 47.6199C119.387 47.6201 119.554 47.5896 119.71 47.5299C119.86 47.4685 119.997 47.3765 120.11 47.2599C120.226 47.1384 120.318 46.9958 120.38 46.8399C120.454 46.6626 120.491 46.4721 120.49 46.2799C120.491 46.1082 120.457 45.9381 120.39 45.7799V45.7599Z" fill="black"/>
<path d="M124.1 47.3C124.035 47.4601 123.94 47.6062 123.82 47.73C123.698 47.8525 123.551 47.9479 123.39 48.01C123.221 48.0748 123.041 48.1087 122.86 48.11C122.672 48.1134 122.485 48.0794 122.31 48.01C122.152 47.9512 122.009 47.8591 121.89 47.74C121.766 47.6209 121.673 47.4732 121.62 47.31C121.548 47.1288 121.514 46.9348 121.52 46.74V44.58H122V46.74C122 46.8829 122.023 47.0249 122.07 47.16C122.11 47.2698 122.175 47.369 122.26 47.45C122.344 47.5181 122.439 47.5721 122.54 47.61C122.649 47.6252 122.761 47.6252 122.87 47.61C122.976 47.6251 123.084 47.6251 123.19 47.61C123.293 47.575 123.388 47.5207 123.47 47.45C123.556 47.3678 123.624 47.2691 123.67 47.16C123.727 47.0274 123.754 46.8841 123.75 46.74V44.58H124.21V46.74C124.211 46.9321 124.174 47.1226 124.1 47.3Z" fill="black"/>
<path d="M126.74 48.05L125.35 46.43V48.05H124.88V44.58H126C126.152 44.5763 126.302 44.607 126.44 44.67C126.566 44.7156 126.679 44.7911 126.77 44.89C126.867 44.9787 126.942 45.0881 126.99 45.21C127.039 45.3375 127.063 45.4734 127.06 45.61C127.071 45.7429 127.051 45.8766 127 46C126.954 46.1207 126.882 46.2298 126.79 46.32C126.7 46.4079 126.595 46.479 126.48 46.53C126.363 46.58 126.237 46.6071 126.11 46.61L127.37 48.06L126.74 48.05ZM126.52 45.4C126.497 45.3333 126.455 45.2744 126.4 45.23C126.344 45.1701 126.276 45.1225 126.2 45.09C126.108 45.0514 126.009 45.0343 125.91 45.04H125.35V46.22H125.9C126.079 46.2292 126.255 46.1682 126.39 46.05C126.449 45.9893 126.494 45.917 126.523 45.8379C126.553 45.7587 126.565 45.6743 126.56 45.59C126.56 45.5246 126.547 45.4598 126.52 45.4Z" fill="black"/>
<path d="M130.79 47.14C130.709 47.3319 130.59 47.5054 130.44 47.65C130.299 47.7977 130.129 47.9136 129.94 47.99C129.753 48.0689 129.553 48.1097 129.35 48.11C129.13 48.1065 128.913 48.0624 128.71 47.98C128.505 47.8911 128.316 47.7696 128.15 47.62C127.987 47.4551 127.854 47.262 127.76 47.05C127.658 46.8204 127.606 46.5713 127.61 46.32C127.603 46.0662 127.651 45.8138 127.75 45.58C127.837 45.3695 127.967 45.1789 128.13 45.02C128.284 44.8597 128.472 44.7366 128.68 44.66C128.892 44.5718 129.12 44.5276 129.35 44.53C129.595 44.5241 129.84 44.5648 130.07 44.65C130.27 44.7379 130.456 44.8559 130.62 45L130.33 45.35C130.192 45.2361 130.037 45.1449 129.87 45.08C129.701 45.017 129.521 44.9865 129.34 44.99C129.175 44.9875 129.011 45.0216 128.86 45.09C128.707 45.146 128.569 45.2387 128.46 45.36C128.343 45.4807 128.251 45.6235 128.19 45.78C128.128 45.9531 128.097 46.136 128.1 46.32C128.097 46.4951 128.131 46.6689 128.2 46.83C128.263 46.9853 128.355 47.1277 128.47 47.25C128.586 47.3685 128.721 47.4666 128.87 47.54C129.024 47.6085 129.191 47.6427 129.36 47.64C129.591 47.6421 129.817 47.576 130.01 47.45C130.093 47.387 130.167 47.3129 130.23 47.23C130.292 47.1415 130.339 47.0436 130.37 46.94H129.37V46.49H130.95C130.94 46.7151 130.886 46.936 130.79 47.14Z" fill="black"/>
<path d="M135.19 47.92C134.944 48.0519 134.669 48.1174 134.39 48.11C134.176 48.1122 133.965 48.0678 133.77 47.98C133.57 47.8981 133.387 47.7794 133.23 47.63C133.07 47.4645 132.941 47.2714 132.85 47.06C132.748 46.8269 132.697 46.5745 132.7 46.32C132.697 46.0771 132.741 45.8359 132.83 45.61C132.909 45.4023 133.028 45.2121 133.18 45.05C133.329 44.884 133.514 44.754 133.72 44.67C133.933 44.5728 134.166 44.5249 134.4 44.53C134.664 44.5224 134.926 44.5701 135.17 44.67C135.364 44.7657 135.534 44.9022 135.67 45.07L135.33 45.38C135.213 45.2601 135.074 45.1649 134.92 45.1C134.76 45.026 134.586 44.9884 134.41 44.99C134.248 44.9882 134.087 45.0224 133.94 45.09C133.794 45.1492 133.661 45.2377 133.55 45.35C133.437 45.4719 133.349 45.6145 133.29 45.77C133.219 45.941 133.185 46.125 133.19 46.31C133.187 46.5088 133.224 46.7061 133.3 46.89C133.372 47.0456 133.47 47.1877 133.59 47.31C133.705 47.415 133.837 47.4995 133.98 47.56C134.111 47.6087 134.25 47.6357 134.39 47.64C134.569 47.641 134.747 47.6035 134.91 47.53C135.103 47.4512 135.272 47.3237 135.4 47.16L135.74 47.46C135.595 47.6537 135.406 47.8111 135.19 47.92Z" fill="black"/>
<path d="M136.27 48.05V44.58H138.19V45H136.74V46.09H138.16V46.54H136.74V47.54H138.28V47.99L136.27 48.05Z" fill="black"/>
<path d="M141.19 48.05L139.39 45.54C139.39 45.54 139.39 45.54 139.33 45.44C139.334 45.4799 139.334 45.52 139.33 45.56V48.05H138.86V44.58H139.26L141.04 47.05C141.063 47.0814 141.083 47.1149 141.1 47.15C141.096 47.11 141.096 47.0699 141.1 47.03V44.58H141.57V48.05H141.19Z" fill="black"/>
<path d="M143.27 45V48H142.8V45H142.1V44.54H144V45H143.27Z" fill="black"/>
<path d="M146.39 48.05L145 46.43V48.05H144.53V44.58H145.64C145.792 44.5763 145.942 44.607 146.08 44.67C146.206 44.7156 146.319 44.7911 146.41 44.89C146.506 44.9787 146.582 45.0881 146.63 45.21C146.679 45.3375 146.703 45.4734 146.7 45.61C146.703 45.7412 146.676 45.8713 146.62 45.99C146.574 46.1107 146.502 46.2198 146.41 46.31C146.318 46.4 146.209 46.4713 146.09 46.52C145.977 46.5712 145.854 46.5985 145.73 46.6L147 48.05H146.39ZM146.17 45.4C146.147 45.3333 146.105 45.2744 146.05 45.23C145.994 45.1701 145.926 45.1225 145.85 45.09C145.758 45.0514 145.659 45.0343 145.56 45.04H145V46.22H145.55C145.729 46.2292 145.905 46.1682 146.04 46.05C146.099 45.9893 146.144 45.917 146.173 45.8379C146.202 45.7587 146.215 45.6743 146.21 45.59C146.21 45.5246 146.197 45.4598 146.17 45.4Z" fill="black"/>
<path d="M147.4 48.05V44.58H149.32V45H147.87V46.09H149.28V46.54H147.87V47.54H149.41V47.99L147.4 48.05Z" fill="black"/>
<path d="M151.88 45V46.09H153V46.54H151.85V48.01H151.38V44.58H153.07V45H151.88Z" fill="black"/>
<path d="M156.87 46.9999C156.783 47.2134 156.653 47.4072 156.49 47.5699C156.335 47.733 156.147 47.8624 155.94 47.9499C155.725 48.0413 155.494 48.0889 155.26 48.0899C155.023 48.0908 154.788 48.0431 154.57 47.9499C154.36 47.866 154.17 47.7401 154.01 47.5799C153.847 47.4172 153.717 47.2234 153.63 47.0099C153.537 46.7814 153.489 46.5368 153.49 46.2899C153.489 46.0463 153.537 45.8049 153.63 45.5799C153.709 45.3618 153.836 45.1638 154 44.9999C154.155 44.8369 154.343 44.7075 154.55 44.6199C155.006 44.4405 155.514 44.4405 155.97 44.6199C156.182 44.7038 156.374 44.8336 156.53 44.9999C156.682 45.1642 156.804 45.3537 156.89 45.5599C156.979 45.7859 157.023 46.0271 157.02 46.2699C157.022 46.5211 156.971 46.7699 156.87 46.9999ZM156.43 45.7599C156.37 45.6057 156.278 45.466 156.16 45.3499C156.046 45.2314 155.91 45.1363 155.76 45.0699C155.594 45.0052 155.418 44.9713 155.24 44.9699C155.065 44.9702 154.892 45.0041 154.73 45.0699C154.578 45.1336 154.442 45.2291 154.33 45.3499C154.219 45.4692 154.13 45.6083 154.07 45.7599C154.009 45.9298 153.978 46.1093 153.98 46.2899C153.98 46.4723 154.017 46.6528 154.09 46.8199C154.146 46.9816 154.242 47.1262 154.37 47.2399C154.481 47.3616 154.618 47.4572 154.77 47.5199C154.924 47.5876 155.091 47.6217 155.26 47.6199C155.424 47.621 155.587 47.5905 155.74 47.5299C155.891 47.4685 156.027 47.3765 156.14 47.2599C156.259 47.1389 156.354 46.9964 156.42 46.8399C156.491 46.6619 156.525 46.4714 156.52 46.2799C156.519 46.1093 156.489 45.9401 156.43 45.7799V45.7599Z" fill="black"/>
<path d="M159.43 48.05L158 46.43V48.05H157.53V44.58H158.64C158.792 44.5763 158.942 44.607 159.08 44.67C159.206 44.7156 159.319 44.7911 159.41 44.89C159.506 44.9787 159.582 45.0881 159.63 45.21C159.679 45.3375 159.703 45.4734 159.7 45.61C159.703 45.7412 159.676 45.8713 159.62 45.99C159.574 46.1107 159.502 46.2198 159.41 46.31C159.32 46.3979 159.215 46.469 159.1 46.52C158.983 46.57 158.857 46.5971 158.73 46.6L160 48.05H159.43ZM159.22 45.4C159.189 45.335 159.145 45.2771 159.09 45.23C159.034 45.1701 158.966 45.1225 158.89 45.09C158.798 45.0514 158.699 45.0343 158.6 45.04H158V46.22H158.55C158.729 46.2303 158.906 46.1692 159.04 46.05C159.1 45.9898 159.147 45.9178 159.178 45.8387C159.209 45.7596 159.223 45.6749 159.22 45.59C159.228 45.527 159.228 45.4631 159.22 45.4Z" fill="black"/>
<path d="M101.82 54.49C101.574 54.6219 101.299 54.6874 101.02 54.68C100.806 54.6813 100.595 54.637 100.4 54.55C100.2 54.4681 100.017 54.3494 99.86 54.2C99.7024 54.0363 99.5739 53.8469 99.48 53.64C99.3809 53.4027 99.3332 53.1471 99.34 52.89C99.3379 52.6514 99.3786 52.4143 99.46 52.19C99.5405 51.98 99.6591 51.7867 99.81 51.62C99.9616 51.4572 100.146 51.3277 100.35 51.24C100.568 51.1468 100.803 51.0992 101.04 51.1C101.302 51.0905 101.562 51.1418 101.8 51.25C101.994 51.3453 102.167 51.4779 102.31 51.64L102 52C101.884 51.8772 101.744 51.7786 101.59 51.71C101.433 51.6406 101.262 51.6065 101.09 51.61C100.926 51.6089 100.763 51.6395 100.61 51.7C100.461 51.7591 100.328 51.8514 100.22 51.97C100.105 52.0866 100.017 52.2264 99.96 52.38C99.8944 52.5525 99.8605 52.7354 99.86 52.92C99.8551 53.1232 99.8961 53.3249 99.98 53.51C100.047 53.6653 100.146 53.8049 100.27 53.92C100.379 54.0327 100.512 54.1183 100.66 54.17C100.79 54.2252 100.929 54.2525 101.07 54.25C101.245 54.2498 101.418 54.2158 101.58 54.15C101.77 54.0666 101.938 53.9399 102.07 53.78L102.41 54.07C102.254 54.2593 102.05 54.4042 101.82 54.49Z" fill="black"/>
<path d="M106 53.6C105.906 53.8069 105.778 53.9963 105.62 54.16C105.461 54.3234 105.27 54.4527 105.06 54.54C104.845 54.6324 104.614 54.6801 104.38 54.68C104.143 54.6839 103.907 54.6361 103.69 54.54C103.481 54.4538 103.291 54.3281 103.13 54.17C102.97 54.0069 102.844 53.813 102.76 53.6C102.666 53.3718 102.618 53.127 102.62 52.88C102.616 52.6403 102.66 52.4022 102.75 52.18C102.834 51.9671 102.96 51.7732 103.12 51.61C103.274 51.448 103.462 51.3217 103.67 51.24C103.888 51.1468 104.123 51.0992 104.36 51.1C104.607 51.0982 104.852 51.1458 105.08 51.24C105.292 51.325 105.483 51.4546 105.64 51.62C105.8 51.7832 105.926 51.9771 106.01 52.19C106.095 52.4137 106.139 52.6508 106.14 52.89C106.14 53.1336 106.092 53.3747 106 53.6ZM105.55 52.35C105.493 52.1964 105.405 52.0566 105.29 51.94C105.178 51.8174 105.037 51.7246 104.88 51.67C104.716 51.6005 104.538 51.5665 104.36 51.57C104.185 51.5673 104.011 51.6013 103.85 51.67C103.701 51.7291 103.568 51.8215 103.46 51.94C103.345 52.0566 103.256 52.1964 103.2 52.35C103.139 52.5201 103.109 52.6995 103.11 52.88C103.107 53.0649 103.141 53.2484 103.21 53.42C103.276 53.5765 103.371 53.719 103.49 53.84C103.607 53.9588 103.747 54.0539 103.9 54.12C104.221 54.2501 104.579 54.2501 104.9 54.12C105.055 54.0612 105.195 53.969 105.31 53.85C105.427 53.7293 105.519 53.5865 105.58 53.43C105.655 53.2529 105.692 53.0623 105.69 52.87C105.679 52.6902 105.635 52.5139 105.56 52.35H105.55Z" fill="black"/>
<path d="M109 54.62L107.2 52.11L107.14 52.02C107.144 52.0566 107.144 52.0935 107.14 52.13V54.62H106.67V51.16H107.07L108.84 53.62L108.91 53.72C108.906 53.6835 108.906 53.6466 108.91 53.61V51.16H109.38V54.62H109Z" fill="black"/>
<path d="M111.11 51.61V54.61H110.64V51.61H109.94V51.16H111.84V51.61H111.11Z" fill="black"/>
<path d="M112.37 54.62V51.16H114.28V51.61H112.84V52.71H114.25V53.16H112.84V54.16H114.37V54.61L112.37 54.62Z" fill="black"/>
<path d="M117.86 54.62V52.07C117.856 52.0268 117.856 51.9833 117.86 51.94L117.81 52.02L116.74 53.49H116.55L115.46 52.06V51.98C115.46 52.04 115.46 52.08 115.46 52.11V54.62H115V51.16H115.4L116.69 52.85L117.94 51.16H118.36V54.62H117.86Z" fill="black"/>
<path d="M121.1 52.62C121.049 52.7436 120.975 52.8558 120.88 52.95C120.783 53.0443 120.672 53.122 120.55 53.18C120.423 53.2314 120.287 53.2585 120.15 53.26H119.51V54.62H119V51.16H120C120.157 51.1596 120.313 51.1867 120.46 51.24C120.594 51.2927 120.716 51.3708 120.82 51.47C120.919 51.5606 120.994 51.6739 121.04 51.8C121.093 51.9371 121.12 52.083 121.12 52.23C121.143 52.3599 121.136 52.4933 121.1 52.62ZM120.51 51.76C120.362 51.6526 120.182 51.5996 120 51.61H119.51V52.81H120C120.177 52.819 120.352 52.762 120.49 52.65C120.555 52.5958 120.607 52.5266 120.64 52.4482C120.673 52.3699 120.687 52.2848 120.68 52.2C120.688 52.1185 120.677 52.0361 120.648 51.9597C120.618 51.8832 120.571 51.8148 120.51 51.76Z" fill="black"/>
<path d="M125 53.6C124.91 53.8092 124.781 53.9992 124.62 54.16C124.465 54.3231 124.277 54.4525 124.07 54.54C123.855 54.6314 123.624 54.679 123.39 54.68C123.152 54.6859 122.917 54.638 122.7 54.54C122.49 54.4561 122.3 54.3302 122.14 54.17C121.977 54.0073 121.847 53.8135 121.76 53.6C121.666 53.3718 121.618 53.127 121.62 52.88C121.619 52.6396 121.667 52.4015 121.76 52.18C121.836 51.9658 121.959 51.7711 122.12 51.61C122.278 51.4522 122.464 51.3265 122.67 51.24C122.889 51.1486 123.123 51.1011 123.36 51.1C123.61 51.0982 123.858 51.1458 124.09 51.24C124.3 51.3274 124.491 51.4567 124.65 51.62C124.804 51.7864 124.926 51.9796 125.01 52.19C125.099 52.4125 125.143 52.6504 125.14 52.89C125.14 53.1336 125.092 53.3747 125 53.6ZM124.56 52.35C124.5 52.1958 124.408 52.0561 124.29 51.94C124.178 51.8213 124.042 51.729 123.89 51.67C123.726 51.6005 123.548 51.5665 123.37 51.57C123.195 51.5654 123.021 51.5995 122.86 51.67C122.707 51.726 122.569 51.8187 122.46 51.94C122.349 52.0593 122.26 52.1984 122.2 52.35C122.139 52.5201 122.109 52.6995 122.11 52.88C122.111 53.0655 122.148 53.249 122.22 53.42C122.282 53.5784 122.378 53.7217 122.5 53.84C122.614 53.9586 122.75 54.0537 122.9 54.12C123.056 54.1797 123.223 54.2102 123.39 54.21C123.554 54.2111 123.717 54.1806 123.87 54.12C124.02 54.0585 124.157 53.9666 124.27 53.85C124.393 53.7325 124.489 53.589 124.55 53.43C124.621 53.2522 124.655 53.0616 124.65 52.87C124.636 52.6895 124.588 52.5132 124.51 52.35H124.56Z" fill="black"/>
<path d="M127.51 54.62L126.12 53V54.62H125.65V51.16H126.76C126.911 51.1531 127.061 51.1804 127.2 51.24C127.324 51.2905 127.436 51.3653 127.53 51.46C127.626 51.5487 127.702 51.6581 127.75 51.78C127.798 51.9077 127.822 52.0434 127.82 52.18C127.825 52.3145 127.797 52.4481 127.74 52.57C127.69 52.6856 127.619 52.7908 127.53 52.88C127.44 52.9678 127.335 53.0389 127.22 53.09C127.105 53.1459 126.978 53.1733 126.85 53.17L128.11 54.62H127.51ZM127.3 52C127.272 51.9303 127.227 51.8685 127.17 51.82C127.114 51.7601 127.046 51.7124 126.97 51.68C126.874 51.6632 126.776 51.6632 126.68 51.68H126.12V52.8H126.67C126.76 52.8061 126.85 52.7932 126.934 52.7622C127.019 52.7312 127.096 52.6827 127.16 52.62C127.22 52.5597 127.267 52.4878 127.298 52.4087C127.329 52.3295 127.343 52.2449 127.34 52.16C127.334 52.105 127.321 52.0511 127.3 52Z" fill="black"/>
<path d="M130.75 54.62L130.34 53.5H129.24L128.83 54.62H128.33L129.65 51.16H129.95L131.27 54.62H130.75ZM129.82 52.08V51.99C129.817 52.02 129.817 52.0501 129.82 52.08L129.46 53.08H130.22L129.82 52.08Z" fill="black"/>
<path d="M133.6 54.62L132.21 53V54.62H131.74V51.16H132.85C133.001 51.1531 133.151 51.1804 133.29 51.24C133.414 51.2905 133.526 51.3653 133.62 51.46C133.716 51.5487 133.792 51.6581 133.84 51.78C133.891 51.9072 133.918 52.0428 133.92 52.18C133.92 52.314 133.893 52.4467 133.84 52.57C133.784 52.6847 133.71 52.7894 133.62 52.88C133.53 52.9678 133.425 53.0389 133.31 53.09C133.195 53.1459 133.068 53.1733 132.94 53.17L134.2 54.62H133.6ZM133.39 52C133.362 51.9303 133.317 51.8685 133.26 51.82C133.204 51.7601 133.136 51.7124 133.06 51.68C132.964 51.6632 132.866 51.6632 132.77 51.68H132.21V52.8H132.76C132.85 52.8061 132.94 52.7932 133.024 52.7622C133.109 52.7312 133.186 52.6827 133.25 52.62C133.31 52.5597 133.357 52.4878 133.388 52.4087C133.419 52.3295 133.433 52.2449 133.43 52.16C133.424 52.105 133.411 52.0511 133.39 52Z" fill="black"/>
<path d="M135.77 53V54.61H135.3V53L134.12 51.15H134.67L135.49 52.44L135.55 52.54C135.548 52.5067 135.548 52.4733 135.55 52.44L136.38 51.15H137L135.77 53Z" fill="black"/>
<path d="M140.63 54.62L140.22 53.5H139.12L138.71 54.62H138.21L139.53 51.16H139.83L141.15 54.62H140.63ZM139.7 52.08V51.99C139.703 52.02 139.703 52.0501 139.7 52.08L139.35 53.08H140.11L139.7 52.08Z" fill="black"/>
<path d="M143.94 54.62L142.14 52.11L142.08 52.02C142.084 52.0566 142.084 52.0935 142.08 52.13V54.62H141.61V51.16H142.01L143.79 53.62L143.85 53.72C143.846 53.6835 143.846 53.6466 143.85 53.61V51.16H144.32V54.62H143.94Z" fill="black"/>
<path d="M147.61 53.56C147.526 53.7669 147.4 53.9542 147.24 54.11C147.067 54.2705 146.868 54.3991 146.65 54.49C146.397 54.5809 146.129 54.6249 145.86 54.62H145V51.16H145.88C146.146 51.1543 146.41 51.1984 146.66 51.29C146.874 51.3725 147.068 51.4985 147.23 51.66C147.388 51.8153 147.511 52.0029 147.59 52.21C147.671 52.424 147.712 52.6512 147.71 52.88C147.718 53.1109 147.684 53.3413 147.61 53.56ZM147.15 52.38C147.081 52.228 146.987 52.0892 146.87 51.97C146.752 51.8468 146.609 51.7511 146.45 51.69C146.272 51.6195 146.081 51.5855 145.89 51.59H145.49V54.2H145.8C146.023 54.2057 146.244 54.1648 146.45 54.08C146.622 54.0187 146.777 53.9156 146.9 53.78C147.02 53.664 147.11 53.5196 147.16 53.36C147.216 53.2099 147.243 53.0504 147.24 52.89C147.241 52.716 147.211 52.5432 147.15 52.38Z" fill="black"/>
<path d="M152.29 53.56C152.206 53.7669 152.08 53.9542 151.92 54.11C151.749 54.2728 151.549 54.4017 151.33 54.49C151.077 54.5818 150.809 54.6258 150.54 54.62H149.71V51.16H150.58C150.846 51.1543 151.11 51.1984 151.36 51.29C151.575 51.3749 151.772 51.5006 151.94 51.66C152.092 51.8186 152.211 52.0055 152.29 52.21C152.371 52.424 152.412 52.6512 152.41 52.88C152.412 53.1121 152.371 53.3425 152.29 53.56ZM151.83 52.38C151.761 52.228 151.667 52.0892 151.55 51.97C151.432 51.8468 151.289 51.7511 151.13 51.69C150.952 51.6195 150.761 51.5855 150.57 51.59H150.18V54.2H150.48C150.703 54.2066 150.924 54.1657 151.13 54.08C151.305 54.0233 151.46 53.9195 151.58 53.78C151.7 53.664 151.79 53.5196 151.84 53.36C151.896 53.2099 151.923 53.0504 151.92 52.89C151.921 52.716 151.891 52.5432 151.83 52.38Z" fill="black"/>
<path d="M153 54.62V51.16H153.47V54.62H153Z" fill="black"/>
<path d="M157.19 53.7201C157.106 53.9106 156.988 54.0836 156.84 54.2301C156.696 54.3713 156.526 54.4834 156.34 54.5601C156.154 54.6401 155.953 54.6809 155.75 54.6801C155.53 54.6815 155.312 54.6372 155.11 54.5501C154.903 54.471 154.715 54.3482 154.56 54.1901C154.39 54.0282 154.254 53.8345 154.16 53.6201C154.058 53.3905 154.006 53.1414 154.01 52.8901C154.008 52.6399 154.056 52.3918 154.15 52.1601C154.237 51.9466 154.367 51.7528 154.53 51.5901C154.688 51.4352 154.875 51.3129 155.08 51.2301C155.527 51.0565 156.023 51.0565 156.47 51.2301C156.67 51.3143 156.855 51.429 157.02 51.5701L156.73 51.9201C156.594 51.8084 156.442 51.7175 156.28 51.6501C156.11 51.5914 155.93 51.5642 155.75 51.5701C155.582 51.5682 155.416 51.5987 155.26 51.6601C155.108 51.719 154.971 51.8113 154.86 51.9301C154.743 52.0488 154.654 52.1923 154.6 52.3501C154.529 52.5246 154.495 52.7118 154.5 52.9001C154.498 53.0719 154.532 53.2421 154.6 53.4001C154.662 53.556 154.754 53.6985 154.87 53.8201C154.985 53.9395 155.121 54.0377 155.27 54.1101C155.424 54.1786 155.591 54.2127 155.76 54.2101C155.876 54.226 155.994 54.226 156.11 54.2101C156.216 54.1723 156.316 54.1219 156.41 54.0601C156.497 54.0025 156.572 53.9276 156.63 53.8401C156.696 53.7578 156.744 53.6623 156.77 53.5601H155.77V53.1101H157.35C157.338 53.3221 157.284 53.5296 157.19 53.7201Z" fill="black"/>
<path d="M157.84 54.62V51.16H158.31V54.62H157.84Z" fill="black"/>
<path d="M160 51.61V54.61H159.53V51.61H158.83V51.16H160.73V51.61H160Z" fill="black"/>
<path d="M163.08 54.62L162.66 53.5H161.57L161.15 54.62H160.66L162 51.16H162.3L163.63 54.62H163.08ZM162.14 52.08L161.78 53.08H162.55L162.14 52.08Z" fill="black"/>
<path d="M164.07 54.62V51.16H164.54V54.16H165.84V54.61L164.07 54.62Z" fill="black"/>
<path d="M169.84 54.62V53.13H168.2V54.62H167.73V51.16H168.2V52.68H169.84V51.16H170.31V54.62H169.84Z" fill="black"/>
<path d="M171 54.62V51.16H171.47V54.62H171Z" fill="black"/>
<path d="M174 54.12C173.941 54.2351 173.863 54.3398 173.77 54.43C173.67 54.5086 173.558 54.5725 173.44 54.62C173.307 54.6602 173.169 54.6804 173.03 54.68C172.854 54.6786 172.679 54.6517 172.51 54.6C172.331 54.5415 172.165 54.4499 172.02 54.33L172.29 53.96C172.339 54.0022 172.393 54.0391 172.45 54.07L172.63 54.15C172.691 54.1759 172.755 54.1927 172.82 54.2H173.01C173.159 54.2058 173.306 54.1637 173.43 54.08C173.485 54.0382 173.528 53.9834 173.556 53.9204C173.584 53.8575 173.596 53.7886 173.59 53.72C173.606 53.6543 173.606 53.5857 173.59 53.52C173.552 53.4623 173.509 53.4087 173.46 53.36C173.407 53.3055 173.346 53.2584 173.28 53.22L173.06 53.1L172.7 52.91C172.584 52.8519 172.476 52.7778 172.38 52.69C172.285 52.6077 172.21 52.5051 172.16 52.39C172.095 52.2597 172.064 52.1153 172.07 51.97C172.068 51.8496 172.092 51.7303 172.14 51.62C172.188 51.5116 172.256 51.4132 172.34 51.33C172.427 51.2451 172.533 51.1833 172.65 51.15C172.781 51.1 172.92 51.0763 173.06 51.08C173.227 51.0805 173.392 51.1075 173.55 51.16C173.708 51.2088 173.856 51.2831 173.99 51.38L173.73 51.76C173.635 51.6912 173.531 51.6372 173.42 51.6C173.298 51.5769 173.172 51.5769 173.05 51.6C172.929 51.5949 172.809 51.63 172.71 51.7C172.661 51.7304 172.622 51.7734 172.595 51.8244C172.569 51.8754 172.557 51.9326 172.56 51.99C172.557 52.0772 172.578 52.1635 172.62 52.24C172.662 52.306 172.717 52.3636 172.78 52.41C172.852 52.4711 172.933 52.5216 173.02 52.56L173.32 52.71L173.61 52.87C173.702 52.9289 173.786 52.9995 173.86 53.08C173.94 53.1607 174.005 53.2557 174.05 53.36C174.101 53.48 174.125 53.6097 174.12 53.74C174.104 53.873 174.063 54.0019 174 54.12Z" fill="black"/>
<path d="M175.57 51.61V54.61H175.1V51.61H174.4V51.16H176.3V51.61H175.57Z" fill="black"/>
<path d="M179.83 53.6C179.74 53.8092 179.611 53.9992 179.45 54.16C179.293 54.3209 179.106 54.4499 178.9 54.54C178.682 54.6324 178.447 54.68 178.21 54.68C177.976 54.685 177.743 54.6372 177.53 54.54C177.316 54.4582 177.122 54.3322 176.96 54.1702C176.798 54.0082 176.672 53.814 176.59 53.6C176.496 53.3718 176.448 53.127 176.45 52.88C176.451 52.6408 176.495 52.4037 176.58 52.18C176.664 51.9671 176.79 51.7732 176.95 51.61C177.106 51.4501 177.293 51.3241 177.5 51.24C177.718 51.1468 177.953 51.0992 178.19 51.1C178.44 51.0982 178.688 51.1458 178.92 51.24C179.129 51.3299 179.319 51.4589 179.48 51.62C179.634 51.7864 179.756 51.9796 179.84 52.19C179.925 52.4137 179.969 52.6508 179.97 52.89C179.97 53.1336 179.922 53.3747 179.83 53.6ZM179.39 52.35C179.326 52.1978 179.235 52.0588 179.12 51.94C179.009 51.8213 178.872 51.729 178.72 51.67C178.555 51.6014 178.378 51.5673 178.2 51.57C178.025 51.5654 177.851 51.5995 177.69 51.67C177.537 51.726 177.399 51.8187 177.29 51.94C177.175 52.0566 177.087 52.1964 177.03 52.35C176.969 52.5201 176.939 52.6995 176.94 52.88C176.942 53.0644 176.976 53.247 177.04 53.42C177.11 53.5745 177.204 53.7164 177.32 53.84C177.439 53.9567 177.578 54.0515 177.73 54.12C177.883 54.1796 178.046 54.2101 178.21 54.21C178.377 54.2102 178.544 54.1797 178.7 54.12C178.851 54.0585 178.987 53.9666 179.1 53.85C179.22 53.7298 179.315 53.5871 179.38 53.43C179.447 53.2508 179.48 53.0612 179.48 52.87C179.482 52.6927 179.451 52.5165 179.39 52.35Z" fill="black"/>
<path d="M182.39 54.62L181 53V54.62H180.53V51.16H181.64C181.791 51.1531 181.941 51.1804 182.08 51.24C182.204 51.2905 182.316 51.3653 182.41 51.46C182.506 51.5487 182.582 51.6581 182.63 51.78C182.678 51.9077 182.702 52.0434 182.7 52.18C182.705 52.3145 182.677 52.4481 182.62 52.57C182.57 52.6856 182.499 52.7908 182.41 52.88C182.318 52.9699 182.209 53.0412 182.09 53.09C181.978 53.1458 181.855 53.1733 181.73 53.17L183 54.62H182.39ZM182.17 52C182.149 51.9291 182.107 51.8663 182.05 51.82C181.994 51.7601 181.926 51.7124 181.85 51.68C181.754 51.6632 181.656 51.6632 181.56 51.68H181V52.8H181.55C181.64 52.8049 181.729 52.7914 181.814 52.7605C181.898 52.7295 181.975 52.6817 182.04 52.62C182.099 52.5592 182.144 52.487 182.173 52.4078C182.202 52.3286 182.215 52.2442 182.21 52.16C182.208 52.1044 182.195 52.0499 182.17 52Z" fill="black"/>
<path d="M184.55 53V54.61H184.08V53L182.9 51.15H183.45L184.28 52.44L184.33 52.54C184.343 52.503 184.363 52.4689 184.39 52.44L185.21 51.15H185.75L184.55 53Z" fill="black"/>
<path d="M165.48 18.95H160.01V24.4199H165.48V18.95Z" fill="black"/>
<path d="M174.36 27.47H168.89V32.94H174.36V27.47Z" fill="black"/>
<path d="M169.04 10.97H163.57V16.44H169.04V10.97Z" fill="black"/>
<path d="M142.17 10.39H136.7V15.86H142.17V10.39Z" fill="black"/>
<path d="M155.98 8.08997H150.51V13.56H155.98V8.08997Z" fill="black"/>
<path d="M165.67 31.1801H160.2V36.6501H165.67V31.1801Z" fill="black"/>
<path d="M128.9 4.55005H123.43V10.02H128.9V4.55005Z" fill="black"/>
<path d="M133.13 26.83C132.6 26.3122 131.975 25.9014 131.29 25.62C130.518 25.31 129.692 25.157 128.86 25.1699H127.15V36.37H128.48C129.446 36.3954 130.408 36.2288 131.31 35.88C132.039 35.5934 132.7 35.1574 133.25 34.5999C133.748 34.0869 134.13 33.4731 134.37 32.8C134.603 32.1586 134.725 31.4822 134.73 30.8C134.735 30.0657 134.592 29.3379 134.31 28.66C134.045 27.9759 133.644 27.3531 133.13 26.83Z" fill="black"/>
<path d="M99.43 19.55V40.93H154.28V19.55H99.43ZM113.51 37.6501C112.426 38.1977 111.224 38.4723 110.01 38.4501C109.096 38.4477 108.192 38.2641 107.35 37.91C106.476 37.5554 105.678 37.0359 105 36.3801C104.303 35.7014 103.746 34.8928 103.36 34C102.928 32.9893 102.713 31.8991 102.73 30.8C102.722 29.7743 102.909 28.7564 103.28 27.8C103.621 26.8946 104.138 26.0654 104.8 25.3601C105.457 24.663 106.25 24.1082 107.13 23.73C108.078 23.3275 109.1 23.1266 110.13 23.14C111.263 23.0985 112.392 23.3139 113.43 23.7701C114.274 24.1681 115.021 24.7447 115.62 25.46L114.12 26.8C113.62 26.2829 113.026 25.8655 112.37 25.57C111.676 25.271 110.926 25.1211 110.17 25.1301C109.483 25.1353 108.804 25.2746 108.17 25.5401C107.536 25.8036 106.962 26.1912 106.48 26.68C105.987 27.1894 105.6 27.7909 105.34 28.4501C104.756 30.0152 104.781 31.7424 105.41 33.2901C105.695 33.925 106.092 34.5041 106.58 35C107.072 35.4583 107.645 35.8211 108.27 36.07C108.84 36.2968 109.447 36.4155 110.06 36.42C110.826 36.4105 111.583 36.2543 112.29 35.96C113.113 35.6059 113.84 35.0609 114.41 34.37L115.88 35.6301C115.265 36.4855 114.452 37.1787 113.51 37.6501ZM123 31.43H117.25L121 26.67C121.204 26.429 121.367 26.1551 121.48 25.8601C121.535 25.6748 121.565 25.4832 121.57 25.2901C121.579 25.0264 121.52 24.7648 121.4 24.53C121.302 24.3433 121.162 24.1823 120.99 24.0601C120.833 23.948 120.657 23.8666 120.47 23.82C120.307 23.7749 120.139 23.7514 119.97 23.75C119.72 23.7423 119.472 23.7865 119.24 23.8801C119.047 23.9615 118.874 24.0857 118.736 24.2433C118.597 24.4009 118.496 24.5878 118.44 24.7901C118.38 24.9981 118.35 25.2135 118.35 25.43H117.21C117.206 25.0132 117.281 24.5993 117.43 24.21C117.561 23.8776 117.762 23.5775 118.02 23.3301C118.265 23.0883 118.563 22.9069 118.89 22.8C119.24 22.6781 119.609 22.6172 119.98 22.6201C120.319 22.6214 120.656 22.6719 120.98 22.7701C121.306 22.8637 121.609 23.0237 121.87 23.2401C122.14 23.4638 122.359 23.7436 122.51 24.0601C122.68 24.4474 122.762 24.8674 122.75 25.2901C122.75 25.6306 122.693 25.9688 122.58 26.2901C122.449 26.6559 122.253 26.9948 122 27.2901L119.52 30.2901H123V31.43ZM136.33 33.64C135.958 34.5323 135.403 35.3364 134.7 36C133.961 36.6954 133.091 37.236 132.14 37.59C131.048 38.0031 129.887 38.2034 128.72 38.18H125.12V23.34H128.91C130.059 23.3241 131.202 23.5208 132.28 23.92C133.215 24.2697 134.067 24.8113 134.78 25.51C135.447 26.1813 135.971 26.9807 136.32 27.8601C137.04 29.7194 137.04 31.7807 136.32 33.64H136.33ZM150.52 38.2001H148.52V31.8101H141.39V38.2001H139.39V23.34H141.39V29.8801H148.52V23.34H150.52V38.2001Z" fill="black"/>
</svg>
