<svg width="199" height="47" viewBox="0 0 199 47" fill="none" xmlns="http://www.w3.org/2000/svg">
<g clip-path="url(#clip0_93_129)">
<path d="M8.4648 30.1699C8.4648 30.1699 13.5636 34.365 16.0176 30.5098C16.0176 30.5098 16.8716 29.1336 17.0954 27.691C17.0954 27.691 17.1203 26.3396 18.4468 25.6349C18.4468 25.6349 18.596 27.55 20.3868 28.3542C20.5361 28.4289 20.677 28.4786 20.8262 28.4537C20.8262 28.4537 20.8262 28.3294 20.5775 28.1801C20.2625 27.9812 20.1878 28.0558 20.1132 27.9812C19.6987 27.6412 19.2344 27.1438 19.2095 26.7541L20.4366 27.293C20.4366 27.293 21.2739 27.5417 21.3651 28.7356C21.3651 28.7356 21.4646 29.5896 21.9289 30.3523C21.9289 30.3523 19.0603 30.0621 17.3193 33.2706L17.0954 32.9058C17.0954 32.9058 17.0705 33.9588 16.4073 34.3235C16.4073 34.3235 16.3078 33.6354 15.8435 33.5359C15.8435 33.5359 15.7689 34.6137 15.0062 35.078C15.0062 35.078 15.1305 34.3899 14.6165 34.0997C14.6165 34.0997 13.9035 35.592 12.5604 35.5423C12.5604 35.5423 12.8091 35.0283 12.635 34.2904C12.635 34.2904 11.209 35.6418 9.96541 35.1029C9.96541 35.1029 10.5541 34.6386 10.5292 33.6354C10.5292 33.6354 8.86275 34.564 7.34555 32.284C7.34555 32.284 7.76009 32.6986 9.0866 31.9856C9.0866 31.9856 8.27411 31.0321 8.47309 30.145" fill="black"/>
<path d="M10.6204 7.66895C10.6204 7.66895 12.3614 8.00886 10.9603 11.0516C10.9603 11.0516 10.3219 13.4559 11.6982 14.5336C11.6982 14.5336 11.8972 14.7326 12.063 15.0477C12.063 15.0477 10.3468 15.6612 11.5241 18.7951C11.5241 18.7951 10.3965 18.4303 9.95714 17.6924C9.95714 17.6924 10.2473 17.568 10.3717 17.0043C10.3717 17.0043 9.46799 17.3939 8.75499 16.4405L9.59235 15.8767C9.59235 15.8767 8.85448 15.8519 8.02541 14.6995L9.02858 14.2849C9.02858 14.2849 7.95079 14.086 7.61087 13.0082H8.5643C8.5643 13.0082 7.72694 11.5158 7.95079 10.6785C7.95079 10.6785 8.61405 11.2671 9.15294 11.3169C9.15294 11.3169 9.66697 10.5541 8.95396 9.72504C8.95396 9.72504 8.61405 9.06178 9.02858 8.13323C9.02858 8.13323 9.05345 8.28246 9.64209 8.40682C9.64209 8.40682 10.2556 8.40682 10.6204 9.73333L10.7448 9.60897C10.7448 9.60897 10.181 8.60579 10.6204 7.66895Z" fill="black"/>
<path d="M24.8141 25.9085L25.8919 25.809C25.8919 25.809 31.0902 25.1457 30.9907 18.3308C30.9907 18.3308 30.8414 14.3844 27.9231 12.519C27.6993 12.3698 27.2598 12.0547 26.7956 11.9055C26.3064 11.7562 25.3032 11.5407 24.4908 12.0796C24.1923 12.2537 23.8524 12.6931 23.7529 13.0081C23.6783 13.2983 23.5539 14.1854 24.7809 15.1886L25.2203 14.6248C25.2203 14.6248 24.383 14.0113 24.6317 13.3729C24.8804 12.7346 25.4691 12.8092 25.5105 12.7843C26.2235 12.7346 28.6029 12.9335 29.8714 17.4188C29.8714 17.4188 30.6342 20.9258 28.0309 23.6451C28.0309 23.6451 28.4454 21.9787 26.5386 19.135C26.5386 19.135 24.8473 16.7804 27.1769 13.8123L26.4391 13.3232C26.4391 13.3232 23.471 16.8053 25.9002 19.7734C25.9002 19.7734 27.8153 22.103 27.0277 23.6202C26.8536 23.9602 26.4639 24.383 26.0494 24.4991C25.6349 24.5985 24.4327 24.8639 24.4327 24.8639" fill="black"/>
<path d="M27.608 11.9635C27.608 11.9635 28.9097 10.3468 32.8809 9.93225C32.8809 9.93225 33.1296 11.0349 30.9409 11.723C30.9409 11.723 31.0404 12.1376 32.9307 11.6733C32.9307 11.6733 32.1679 13.4143 29.9128 12.577C29.9128 12.577 28.9345 12.2619 28.2713 12.5024" fill="black"/>
<path d="M18.6624 4.63452C18.6624 4.63452 19.45 5.02419 19.4251 6.45019L22.957 7.72695C22.957 7.72695 23.3218 6.77352 24.7229 6.32583C24.7229 6.32583 24.5985 6.07711 23.6451 6.22634C23.6451 6.22634 23.471 5.93616 22.9321 5.83667C22.9321 5.83667 22.7331 6.11027 22.9818 6.64916C22.9818 6.64916 22.4678 6.91447 22.3435 7.03883C22.3435 7.03883 22.1694 6.67404 22.0035 6.37557C22.0035 6.37557 22.6668 6.20147 22.6668 5.66257C22.6668 5.66257 22.3766 5.8118 22.2274 5.76206C22.2274 5.76206 22.7414 5.0988 22.0284 4.53503C22.0284 4.53503 21.5393 4.87495 21.4646 5.53821C21.4646 5.53821 21.0999 5.26462 20.8263 5.22316C20.8263 5.22316 20.7019 5.56308 20.9009 6.12685C20.9009 6.12685 20.7268 6.42531 20.362 6.46677C20.362 6.46677 19.9723 6.31754 19.8231 5.82838L20.1133 5.80351C20.1133 5.80351 20.4034 5.65428 20.478 5.51334C20.478 5.51334 20.2542 5.3641 19.8894 5.3641L19.8645 5.26462H19.964C19.964 5.26462 19.9889 4.3858 18.6624 4.62623" fill="black"/>
<path d="M18.5132 21.8377L18.3888 21.6636C19.4666 21.2739 19.7899 20.0469 19.7899 20.0469C20.1796 18.0157 21.3071 17.9908 21.3071 17.9908L21.1579 18.1649C20.3951 18.4551 20.2542 19.8313 20.2542 19.8313C20.2045 21.5724 18.5132 21.8377 18.5132 21.8377ZM17.4354 21.9621L16.6726 22.2274L16.4239 22.1527L16.4736 22.103L16.8136 22.0284C17.7172 21.5144 18.1649 19.8977 18.1649 19.8977C18.8282 18.3556 19.9557 18.2064 19.9557 18.2064L20.0552 18.3556L19.8811 18.4302C18.7287 18.8696 18.6044 20.1215 18.6044 20.1215C18.5546 21.7133 17.4271 21.9621 17.4271 21.9621M19.6904 8.59744C19.6904 8.59744 19.8148 8.44821 19.8894 8.59744L19.9143 8.67205L19.8397 8.69693C19.8397 8.69693 19.7651 8.69693 19.6158 8.77154C19.6158 8.77154 19.4666 8.87103 19.392 8.69693L19.6821 8.59744M30.7254 36.0562C30.5761 35.7163 30.4352 35.2686 30.4352 35.2686L31.5627 35.2935C30.5347 35.2686 30.4601 33.4778 30.4601 33.4778C30.1865 31.9606 31.0984 30.9989 31.0984 30.9989C28.1552 31.0735 27.4422 29.2827 27.4422 29.2827C26.066 27.9314 25.6017 24.7477 25.6017 24.7477C25.6017 24.7477 25.552 24.4576 25.4276 24.2834C25.3032 24.0596 25.2286 23.9684 24.9385 23.6699C24.5239 23.2305 22.9984 22.2937 22.8077 22.1527C21.9538 21.5641 21.5061 20.8511 21.5061 20.8511C20.9921 21.4895 20.3288 21.6636 20.3288 21.6636L20.2542 21.4397C23.0482 19.6738 21.9455 16.9545 21.9455 16.9545C22.0699 16.3658 22.5093 15.6031 22.5093 15.6031C24.4742 12.9832 23.0979 9.22753 23.0979 9.22753C23.6368 8.34872 22.9238 8.22436 22.9238 8.22436C22.2108 8.07512 22.1859 8.42333 22.1859 8.42333L22.0864 8.39846L22.0367 8.32385L20.0304 7.58597C19.3671 7.22118 19.0521 7.31238 19.0521 7.31238C19.0023 7.70204 19.1267 7.87615 19.1267 7.87615C19.2759 8.00051 19.4417 7.95076 19.4417 7.95076C20.1796 7.75179 20.4946 8.29068 20.4946 8.29068L20.3951 8.41504C20.1962 8.19119 19.9806 8.19119 19.9806 8.19119C19.4666 8.14145 19.4915 8.43992 19.4915 8.43992C19.3174 8.68864 19.2427 8.41504 19.2427 8.41504L19.1681 8.16632C18.6292 8.04196 18.7287 7.31238 18.7287 7.31238C17.8002 7.36212 16.913 7.6523 16.913 7.6523C16.598 7.77666 16.6892 7.99222 16.6892 7.99222L16.9628 8.38188L16.8136 8.92078C16.4985 9.75814 17.4022 9.77472 17.4022 9.77472H18.6292C19.5578 9.9737 18.9194 10.6121 18.9194 10.6121C18.9443 11.665 18.3308 11.4411 18.3308 11.4411C17.5183 10.8028 17.0789 11.3665 17.0789 11.3665C16.8053 11.9054 17.4188 11.9054 17.4188 11.9054C18.6458 11.9303 17.8831 12.834 17.8831 12.834C17.5846 13.5221 16.7804 13.3729 16.7804 13.3729C14.8404 13.1739 14.5005 14.1356 14.5005 14.1356C13.7875 14.8735 13.8869 16.9545 13.8869 16.9545C13.3729 15.7026 13.9367 14.26 13.9367 14.26C12.1708 14.8735 12.8092 18.1566 12.8092 18.1566C11.9718 16.3907 12.5356 15.3129 12.5356 15.3129C10.9437 15.5368 11.408 17.883 11.408 17.883L12.0215 19.3754L10.38 20.2044C9.05346 20.9423 8.22439 20.279 8.22439 20.279C5.82009 18.0488 3.20023 20.1796 3.20023 20.1796C4.50187 21.0584 5.94445 20.6438 5.94445 20.6438C5.60453 21.2076 4.10391 21.8709 4.10391 21.8709C6.65745 22.874 7.38703 21.6967 7.38703 21.6967C7.72695 22.7497 7.13831 23.3383 7.13831 23.3383C8.11661 23.6036 9.31877 22.3849 9.31877 22.3849C9.21928 22.9486 8.77987 23.4378 8.77987 23.4378C9.68356 23.4129 10.695 22.2605 10.695 22.2605C10.7696 22.8243 10.38 23.2388 10.38 23.2388C11.6319 23.0398 12.32 21.9123 12.32 21.9123C12.3697 22.5507 12.005 23.0647 12.005 23.0647C12.718 22.9652 13.232 22.3766 13.232 22.3766C11.8806 21.3485 12.2039 20.5858 12.2039 20.5858C12.6185 22.2274 14.0445 22.5009 14.0445 22.5009C15.1969 22.302 15.9099 20.42 15.9099 20.42C16.7887 18.5546 17.8996 18.7535 17.8996 18.7535C16.5731 19.2427 16.4736 20.0801 16.4736 20.0801C15.9845 22.0367 15.2466 22.3103 15.2466 22.3103C15.4953 23.073 17.1369 23.4875 17.1369 23.4875C17.5514 23.6865 18.1649 24.0016 18.4883 24.1757C21.133 25.5271 21.3817 27.9231 21.3817 27.9231C21.7714 30.4683 23.7612 31.057 23.7612 31.057C27.6578 32.3337 27.3676 35.0779 27.3676 35.0779C27.1438 39.1984 24.6483 40.7405 24.6483 40.7405L24.7229 40.7654C25.4359 40.9892 25.8753 40.7156 25.8753 40.7156C26.0743 41.3043 25.8753 41.7934 25.8753 41.7934C27.9314 41.4949 28.9926 39.2647 28.9926 39.2647C29.5315 39.9529 30.3191 39.9777 30.3191 39.9777C29.7802 39.1238 29.9295 37.333 29.9295 37.333L30.7419 37.847L30.3523 36.8936L30.203 36.2801C30.5015 36.5786 31.1316 36.819 31.1316 36.819C31.1067 36.6449 30.9078 36.3547 30.7419 36.0065" fill="black"/>
<path d="M18.5878 25.5353C18.5878 25.5353 19.6656 24.9964 20.2542 26.1737L20.7931 27.1271C20.7931 27.1271 21.1081 27.6163 21.133 27.7407C21.133 27.7407 20.934 27.2764 20.0552 27.0028C20.0552 27.0028 18.679 26.5136 18.5878 25.5353Z" fill="black"/>
<path d="M19.45 6.74036L19.4251 6.90617L22.2688 8.01712L22.6087 7.81815" fill="black"/>
<path d="M15.1803 8.15807C15.1803 8.15807 15.2549 10.3634 17.2612 10.3385C17.2612 10.3385 17.4851 10.0898 18.7536 10.7531L18.679 11.0432C18.679 11.0432 18.2147 10.5292 17.3027 10.7033C17.3027 10.7033 16.0259 11.1676 15.1969 10.5043C15.1969 10.5043 13.8703 9.42655 15.172 8.14978" fill="black"/>
<mask id="mask0_93_129" style="mask-type:luminance" maskUnits="userSpaceOnUse" x="0" y="0" width="199" height="47">
<path d="M0 47H198.455V0H0" fill="white"/>
</mask>
<g mask="url(#mask0_93_129)">
<path d="M41.3457 47H42.208V0H41.3457" fill="black"/>
</g>
<path d="M52.2231 15.6612V10.5873H52.9693V15.0394H54.8513V15.6612H52.2231Z" fill="black"/>
<path d="M56.0286 15.6612V10.5873H58.7894V11.151H56.7664V12.7594H58.6982V13.3315H56.7664V15.0643H58.7894V15.6612H56.0286Z" fill="black"/>
<path d="M66.3505 15.429C66.0769 15.5284 65.795 15.5948 65.5049 15.6528C65.2147 15.7026 64.9079 15.7274 64.5763 15.7274C64.1949 15.7274 63.8384 15.6694 63.5234 15.5616C63.2083 15.4538 62.9264 15.288 62.6943 15.0808C62.4622 14.8652 62.2881 14.6082 62.1554 14.2931C62.0311 13.9781 61.9647 13.6216 61.9647 13.2071C61.9647 12.8257 62.0311 12.4775 62.1554 12.1458C62.2881 11.8142 62.4705 11.5323 62.7109 11.2919C62.9513 11.0515 63.2415 10.8608 63.5897 10.7198C63.9379 10.5789 64.3276 10.5126 64.7587 10.5126C65.0157 10.5126 65.2644 10.5292 65.5131 10.5623C65.7619 10.5955 66.0106 10.6535 66.2593 10.7364L66.1515 11.3997C65.9194 11.3085 65.679 11.2422 65.4468 11.1924C65.2147 11.1427 64.9743 11.1178 64.7338 11.1178C64.4768 11.1178 64.2281 11.1592 63.9877 11.2422C63.7472 11.3251 63.54 11.4494 63.3576 11.6152C63.1752 11.7811 63.0342 11.9883 62.9264 12.2453C62.8187 12.4941 62.7689 12.7925 62.7689 13.1324C62.7689 13.4475 62.8187 13.7211 62.9099 13.9698C63.0011 14.2185 63.1337 14.4175 63.3078 14.5833C63.4736 14.7491 63.6809 14.8735 63.913 14.9647C64.1535 15.0559 64.4105 15.0973 64.7007 15.0973C64.8665 15.0973 65.0323 15.0808 65.1898 15.0559C65.3473 15.031 65.4966 14.9978 65.6209 14.9564V13.0744H66.3671V15.4207" fill="black"/>
<path d="M72.6017 13.0827C72.6017 13.5055 72.5354 13.8869 72.4027 14.2185C72.2701 14.5501 72.0877 14.832 71.8638 15.0559C71.64 15.2797 71.3664 15.4538 71.0596 15.5699C70.7529 15.686 70.4129 15.744 70.0564 15.744C69.6502 15.744 69.2937 15.6777 68.9952 15.5533C68.6968 15.429 68.448 15.2466 68.2574 15.0144C68.0667 14.7823 67.9257 14.5087 67.8262 14.2019C67.735 13.8869 67.6853 13.547 67.6853 13.1739C67.6853 12.7511 67.7516 12.378 67.8926 12.0463C68.0335 11.7147 68.2076 11.4411 68.4398 11.209C68.6636 10.9851 68.9372 10.811 69.244 10.6867C69.5507 10.5623 69.874 10.5043 70.2223 10.5043C70.9684 10.5043 71.5571 10.7281 71.9799 11.1675C72.4027 11.6069 72.6183 12.2453 72.6183 13.0827M71.8141 13.1573C71.8141 12.494 71.6648 11.9883 71.3664 11.6484C71.0679 11.3085 70.6617 11.1344 70.1394 11.1344C69.9155 11.1344 69.7082 11.1758 69.501 11.2587C69.302 11.3416 69.1196 11.466 68.9704 11.6318C68.8211 11.7976 68.6968 12.0049 68.6056 12.2453C68.5144 12.4858 68.4729 12.7676 68.4729 13.091C68.4729 13.3646 68.4978 13.6216 68.5558 13.862C68.6139 14.1024 68.7051 14.318 68.8377 14.5004C68.9704 14.6828 69.1362 14.832 69.3434 14.9398C69.5507 15.0476 69.8077 15.0973 70.1062 15.0973C70.3466 15.0973 70.5705 15.0559 70.7777 14.973C70.985 14.8901 71.1674 14.7657 71.3166 14.6082C71.4659 14.4506 71.5902 14.2434 71.6814 14.0029C71.7726 13.7625 71.8141 13.4806 71.8141 13.1573Z" fill="black"/>
<path d="M78.3057 13.7294C78.3057 13.9947 78.2642 14.2517 78.1813 14.4922C78.0984 14.7326 77.9658 14.9482 77.7917 15.1306C77.6176 15.313 77.3854 15.4622 77.1035 15.57C76.8299 15.6777 76.49 15.7358 76.1004 15.7358C75.4122 15.7358 74.8816 15.5783 74.5334 15.2632C74.1852 14.9482 74.0028 14.5005 74.0028 13.9035V10.5624H74.749V13.7958C74.749 14.2435 74.8733 14.5751 75.1221 14.7906C75.3708 15.0062 75.719 15.1057 76.1667 15.1057C76.6807 15.1057 77.0455 14.973 77.2528 14.7077C77.4683 14.4424 77.5678 14.1025 77.5678 13.6797V10.5624H78.314V13.7128" fill="black"/>
<path d="M82.1692 15.6612H81.3401L79.342 10.579H80.1711L81.3235 13.5968C81.4064 13.8124 81.4893 14.0279 81.5557 14.2435C81.6303 14.459 81.6883 14.6663 81.7546 14.8819H81.7629C81.8375 14.6746 81.9039 14.4673 81.9785 14.2601C82.0531 14.0528 82.1277 13.8455 82.2023 13.6465L83.4294 10.5873H84.2004L82.1692 15.6695" fill="black"/>
<path d="M85.2699 15.6612V10.5873H88.039V11.151H86.0161V12.7594H87.9478V13.3315H86.0161V15.0643H88.039V15.6612H85.2699Z" fill="black"/>
<path d="M92.2341 15.6612L90.4433 13.4061H90.4101V15.6612H89.664V10.579C89.8132 10.579 90.0039 10.5707 90.2443 10.5624C90.4847 10.5624 90.7501 10.5624 91.0485 10.5624C91.6372 10.5624 92.0849 10.6702 92.3916 10.894C92.6984 11.1179 92.8559 11.4412 92.8559 11.8723C92.8559 12.0962 92.8144 12.3034 92.7315 12.4775C92.6486 12.6516 92.5326 12.8009 92.3916 12.9252C92.2424 13.0496 92.0766 13.1491 91.8776 13.2154C91.6786 13.2817 91.4631 13.3232 91.2309 13.3398C91.3055 13.4144 91.3719 13.489 91.4548 13.5802C91.5294 13.6714 91.6123 13.7709 91.6952 13.8704L93.1709 15.6612H92.2341ZM92.1014 11.9635C92.1014 11.6816 92.0019 11.4744 91.7947 11.3417C91.5957 11.2091 91.3138 11.1344 90.9656 11.1344C90.8413 11.1344 90.7418 11.1344 90.6506 11.1344C90.5677 11.1344 90.4847 11.1427 90.4184 11.1593V12.8672C90.493 12.8672 90.5842 12.8755 90.6837 12.8838C90.7832 12.8838 90.891 12.8838 90.9905 12.8838C91.3304 12.8838 91.5957 12.8009 91.7947 12.6351C91.9937 12.4692 92.0931 12.2454 92.0931 11.9552" fill="black"/>
<path d="M97.9132 15.6612L95.8322 12.4858C95.7245 12.32 95.6167 12.1459 95.5172 11.9718C95.4177 11.7977 95.3265 11.6236 95.2519 11.4661H95.2436C95.2602 11.6319 95.2685 11.8226 95.2768 12.0299C95.2768 12.2371 95.2851 12.4941 95.2851 12.7926V15.6612H94.5721V10.579H95.5421L97.5899 13.7129C97.8137 14.0445 98.0127 14.3927 98.2034 14.7492H98.2117C98.1951 14.5751 98.1868 14.3347 98.1785 14.0445C98.1785 13.746 98.1702 13.3895 98.1702 12.9667V10.5873H98.8915V15.6695H97.9132" fill="black"/>
<path d="M100.832 15.6612V10.5873H103.601V11.151H101.578V12.7594H103.509V13.3315H101.578V15.0643H103.601V15.6612H100.832Z" fill="black"/>
<path d="M110.49 15.6612L110.067 12.6931C110.026 12.4029 110.001 12.1542 109.976 11.947C109.951 11.7397 109.935 11.5739 109.926 11.4329H109.918C109.885 11.5407 109.852 11.6734 109.81 11.8226C109.769 11.9718 109.719 12.1294 109.661 12.3035L108.5 15.6612H107.688L106.61 12.519C106.544 12.3366 106.478 12.1459 106.419 11.9552C106.361 11.7563 106.312 11.5905 106.287 11.4412H106.279C106.262 11.6402 106.245 11.8392 106.229 12.0382C106.204 12.2454 106.179 12.4693 106.146 12.718L105.765 15.6695H105.018L105.781 10.5873H106.701L107.821 13.8621C107.887 14.0362 107.945 14.2103 107.995 14.3678C108.044 14.5337 108.078 14.6829 108.111 14.8238H108.119C108.161 14.658 108.202 14.5005 108.243 14.3678C108.285 14.2352 108.335 14.0777 108.393 13.8953L109.562 10.5873H110.532L111.278 15.6695H110.498" fill="black"/>
<path d="M113.002 15.6612V10.5873H115.771V11.151H113.748V12.7594H115.68V13.3315H113.748V15.0643H115.771V15.6612H113.002Z" fill="black"/>
<path d="M120.762 15.6612L118.681 12.4858C118.574 12.32 118.466 12.1459 118.366 11.9718C118.267 11.7977 118.176 11.6236 118.101 11.4661H118.093C118.109 11.6319 118.118 11.8226 118.126 12.0299C118.126 12.2371 118.134 12.4941 118.134 12.7926V15.6612H117.421V10.579H118.391L120.439 13.7129C120.663 14.0445 120.862 14.3927 121.053 14.7492H121.061C121.044 14.5751 121.036 14.3347 121.028 14.0445C121.028 13.746 121.019 13.3895 121.019 12.9667V10.5873H121.741V15.6695H120.762" fill="black"/>
<path d="M125.132 11.2091V15.6612H124.394V11.2091H122.877V10.5873H126.665V11.2091H125.132Z" fill="black"/>
<path d="M56.6006 23.5125C56.6006 23.9602 56.526 24.3498 56.3768 24.6815C56.2276 25.0131 56.0203 25.2784 55.7467 25.4939C55.4814 25.7095 55.1663 25.867 54.7933 25.9748C54.4285 26.0826 54.0305 26.1323 53.5994 26.1323C53.3092 26.1323 53.0605 26.1323 52.8449 26.124C52.6294 26.124 52.4221 26.1157 52.2231 26.1157V21.0335C52.4304 21.0335 52.6874 21.0335 52.9942 21.0253C53.3009 21.0253 53.5828 21.017 53.8564 21.017C54.2792 21.017 54.6606 21.0667 55.0005 21.1579C55.3404 21.2491 55.6306 21.3983 55.8628 21.6056C56.0949 21.8129 56.2773 22.0699 56.4099 22.3849C56.5343 22.7 56.6006 23.0731 56.6006 23.5125ZM55.813 23.5622C55.813 22.2523 55.1249 21.5973 53.7403 21.5973C53.6243 21.5973 53.4999 21.5973 53.359 21.5973C53.2263 21.5973 53.0937 21.6056 52.9693 21.6222V25.5022C53.0605 25.5022 53.1766 25.5188 53.3175 25.5188C53.4585 25.5188 53.5828 25.5271 53.6906 25.5271C54.0056 25.5271 54.2875 25.4857 54.5528 25.411C54.8098 25.3364 55.0337 25.2121 55.2244 25.0545C55.4068 24.897 55.556 24.6897 55.6555 24.441C55.755 24.1923 55.813 23.9021 55.813 23.5622Z" fill="black"/>
<path d="M62.2549 24.1757C62.2549 24.441 62.2134 24.698 62.1305 24.9385C62.0476 25.1789 61.915 25.3945 61.7409 25.5768C61.5668 25.7592 61.3346 25.9085 61.0527 26.0163C60.7709 26.124 60.4392 26.1821 60.0496 26.1821C59.3614 26.1821 58.8308 26.0245 58.4826 25.7095C58.1261 25.3945 57.952 24.9468 57.952 24.3498V21.0087H58.6982V24.242C58.6982 24.6897 58.8225 25.0214 59.0713 25.2369C59.32 25.4525 59.6682 25.552 60.1159 25.552C60.6299 25.552 60.9947 25.4193 61.202 25.154C61.4175 24.8887 61.517 24.5488 61.517 24.126V21.0087H62.2632V24.1591" fill="black"/>
<path d="M70.073 25.8752C69.7994 25.9747 69.5176 26.0411 69.2274 26.0991C68.9372 26.1488 68.6305 26.1737 68.2988 26.1737C67.9174 26.1737 67.561 26.1157 67.2459 26.0079C66.9309 25.9001 66.649 25.7343 66.4168 25.527C66.1847 25.3115 66.0106 25.0545 65.8779 24.7394C65.7536 24.4244 65.6873 24.0679 65.6873 23.6533C65.6873 23.272 65.7536 22.9238 65.8779 22.5921C66.0106 22.2605 66.193 21.9786 66.4334 21.7382C66.6738 21.4978 66.964 21.3071 67.3122 21.1661C67.6604 21.0252 68.0501 20.9589 68.4812 20.9589C68.7382 20.9589 68.987 20.9754 69.2357 21.0086C69.4844 21.0418 69.7331 21.0998 69.9818 21.1827L69.8741 21.846C69.6419 21.7548 69.4015 21.6884 69.1693 21.6387C68.9372 21.589 68.6968 21.5641 68.4563 21.5641C68.1993 21.5641 67.9506 21.6055 67.7102 21.6884C67.4698 21.7714 67.2625 21.8957 67.0801 22.0615C66.8977 22.2273 66.7568 22.4346 66.649 22.6916C66.5412 22.9403 66.4914 23.2388 66.4914 23.5787C66.4914 23.8938 66.5412 24.1674 66.6324 24.4161C66.7236 24.6648 66.8562 24.8638 67.0303 25.0296C67.1962 25.1954 67.4034 25.3198 67.6356 25.411C67.876 25.5022 68.133 25.5436 68.4232 25.5436C68.589 25.5436 68.7548 25.527 68.9123 25.5022C69.0699 25.4773 69.2191 25.4441 69.3435 25.4027V23.5207H70.0896V25.867" fill="black"/>
<path d="M74.4754 26.1074L72.6846 23.8524H72.6514V26.1074H71.9053V21.0252C72.0545 21.0252 72.2452 21.017 72.4856 21.0087C72.7261 21.0087 72.9914 21.0087 73.2898 21.0087C73.8785 21.0087 74.3262 21.1164 74.6329 21.3403C74.9397 21.5641 75.0972 21.8875 75.0972 22.3186C75.0972 22.5424 75.0557 22.7497 74.9728 22.9238C74.8899 23.0979 74.7739 23.2472 74.6329 23.3715C74.4837 23.4959 74.3179 23.5954 74.1189 23.6617C73.9199 23.728 73.7044 23.7695 73.4722 23.7861C73.5468 23.8607 73.6132 23.9353 73.6961 24.0265C73.7707 24.1177 73.8536 24.2172 73.9365 24.3167L75.4122 26.1074H74.4754ZM74.3427 22.4098C74.3427 22.1279 74.2433 21.9206 74.036 21.788C73.837 21.6553 73.5551 21.5807 73.2069 21.5807C73.0826 21.5807 72.9831 21.5807 72.8919 21.5807C72.809 21.5807 72.726 21.589 72.6597 21.6056V23.3135C72.7343 23.3135 72.8255 23.3218 72.925 23.3301C73.0245 23.3301 73.1323 23.3301 73.2318 23.3301C73.5717 23.3301 73.837 23.2472 74.036 23.0813C74.235 22.9155 74.3344 22.6917 74.3344 22.4015" fill="black"/>
<path d="M80.0385 26.1075L79.6073 24.9716H77.2362L76.7968 26.1075H76.0506L78.0487 21.0253H78.8778L80.8509 26.1075H80.0302M78.7285 22.6585C78.6705 22.5093 78.6125 22.3601 78.5627 22.2025C78.513 22.0533 78.4632 21.9124 78.4301 21.788H78.4218C78.3886 21.9207 78.3472 22.0616 78.2974 22.2108C78.2477 22.3601 78.1896 22.5093 78.1233 22.6585L77.4435 24.4079H79.4084L78.7368 22.6585" fill="black"/>
<path d="M85.4026 26.1075L83.3216 22.9321C83.2138 22.7663 83.106 22.5922 83.0065 22.4181C82.9071 22.244 82.8159 22.0699 82.7412 21.9124H82.7329C82.7495 22.0782 82.7578 22.2689 82.7661 22.4761C82.7661 22.6834 82.7744 22.9404 82.7744 23.2389V26.1075H82.0614V21.0253H83.0314L85.0792 24.1592C85.3031 24.4908 85.502 24.839 85.6927 25.1955H85.701C85.6844 25.0214 85.6761 24.781 85.6679 24.4908C85.6679 24.1923 85.6596 23.8358 85.6596 23.413V21.0336H86.3809V26.1158H85.4026" fill="black"/>
<path d="M92.6984 23.5125C92.6984 23.9602 92.6237 24.3498 92.4745 24.6815C92.3253 25.0131 92.118 25.2784 91.8444 25.4939C91.5791 25.7095 91.2641 25.867 90.891 25.9748C90.5262 26.0826 90.1282 26.1323 89.6971 26.1323C89.4069 26.1323 89.1582 26.1323 88.9427 26.124C88.7271 26.124 88.5198 26.1157 88.3209 26.1157V21.0335C88.5281 21.0335 88.7851 21.0335 89.0919 21.0253C89.3987 21.0253 89.6805 21.017 89.9541 21.017C90.377 21.017 90.7583 21.0667 91.0982 21.1579C91.4382 21.2491 91.7283 21.3983 91.9605 21.6056C92.1926 21.8129 92.375 22.0699 92.5077 22.3849C92.6403 22.7 92.6984 23.0731 92.6984 23.5125ZM91.9024 23.5622C91.9024 22.2523 91.2143 21.5973 89.8298 21.5973C89.7137 21.5973 89.5893 21.5973 89.4484 21.5973C89.3157 21.5973 89.1831 21.6056 89.0587 21.6222V25.5022C89.1499 25.5022 89.266 25.5188 89.4069 25.5188C89.5479 25.5188 89.6722 25.5271 89.78 25.5271C90.0951 25.5271 90.377 25.4857 90.6423 25.411C90.8993 25.3364 91.1231 25.2121 91.3138 25.0545C91.4962 24.897 91.6454 24.6897 91.7449 24.441C91.8444 24.1923 91.9024 23.9021 91.9024 23.5622Z" fill="black"/>
<path d="M93.5523 23.9684V23.3798H95.824V23.9684H93.5523Z" fill="black"/>
<path d="M101.611 23.5125C101.611 23.9602 101.536 24.3498 101.387 24.6815C101.238 25.0131 101.031 25.2784 100.757 25.4939C100.492 25.7095 100.177 25.867 99.8035 25.9748C99.4387 26.0826 99.0408 26.1323 98.6097 26.1323C98.3195 26.1323 98.0708 26.1323 97.8552 26.124C97.6396 26.124 97.4324 26.1157 97.2334 26.1157V21.0335C97.4407 21.0335 97.6977 21.0335 98.0044 21.0253C98.3112 21.0253 98.5931 21.017 98.8667 21.017C99.2895 21.017 99.6709 21.0667 100.011 21.1579C100.351 21.2491 100.641 21.3983 100.873 21.6056C101.105 21.8129 101.288 22.0699 101.42 22.3849C101.553 22.7 101.611 23.0731 101.611 23.5125ZM100.823 23.5622C100.823 22.2523 100.135 21.5973 98.7506 21.5973C98.6345 21.5973 98.5102 21.5973 98.3692 21.5973C98.2366 21.5973 98.1039 21.6056 97.9796 21.6222V25.5022C98.0708 25.5022 98.1868 25.5188 98.3278 25.5188C98.4687 25.5188 98.5931 25.5271 98.7009 25.5271C99.0159 25.5271 99.2978 25.4857 99.5631 25.411C99.8284 25.3364 100.044 25.2121 100.235 25.0545C100.417 24.897 100.566 24.6897 100.666 24.441C100.765 24.1923 100.823 23.9021 100.823 23.5622Z" fill="black"/>
<path d="M107.273 24.1757C107.273 24.441 107.232 24.698 107.149 24.9385C107.066 25.1789 106.934 25.3945 106.759 25.5768C106.585 25.7592 106.353 25.9085 106.071 26.0163C105.798 26.124 105.458 26.1821 105.068 26.1821C104.38 26.1821 103.849 26.0245 103.501 25.7095C103.153 25.3945 102.971 24.9468 102.971 24.3498V21.0087H103.717V24.242C103.717 24.6897 103.841 25.0214 104.09 25.2369C104.339 25.4525 104.687 25.552 105.134 25.552C105.648 25.552 106.013 25.4193 106.221 25.154C106.436 24.8887 106.536 24.5488 106.536 24.126V21.0087H107.282V24.1591" fill="black"/>
<path d="M112.555 25.9084C112.347 25.9913 112.123 26.0577 111.891 26.1074C111.659 26.1489 111.402 26.1737 111.129 26.1737C110.324 26.1737 109.711 25.9499 109.296 25.5105C108.882 25.0711 108.675 24.4575 108.675 23.6699C108.675 23.3051 108.724 22.9569 108.832 22.6336C108.94 22.302 109.097 22.0201 109.313 21.7714C109.529 21.5226 109.802 21.332 110.142 21.1827C110.474 21.0418 110.88 20.9672 111.336 20.9672C111.527 20.9672 111.726 20.9755 111.925 21.0003C112.132 21.0252 112.322 21.0584 112.505 21.1164L112.439 21.7879C112.016 21.6553 111.618 21.589 111.236 21.589C110.938 21.589 110.673 21.6387 110.457 21.7465C110.233 21.8543 110.051 21.9952 109.902 22.1693C109.752 22.3517 109.645 22.559 109.578 22.8077C109.504 23.0481 109.47 23.3134 109.47 23.5953C109.47 24.2171 109.628 24.698 109.935 25.0296C110.242 25.3612 110.697 25.5188 111.311 25.5188C111.518 25.5188 111.726 25.4939 111.933 25.4524C112.14 25.411 112.331 25.3447 112.497 25.2535L112.555 25.9084Z" fill="black"/>
<path d="M117.438 26.1074V23.8026H114.702V26.1074H113.964V21.0417H114.702V23.1807H117.438V21.0417H118.184V26.1074H117.438Z" fill="black"/>
<path d="M120.124 26.1074V21.0252H122.885V21.589H120.862V23.1974H122.794V23.7611H120.862V25.5022H122.885V26.0991H120.124M121.235 20.4531L120.912 20.0469L122.18 18.9608L122.578 19.4665L121.227 20.4531" fill="black"/>
<path d="M130.977 23.5125C130.977 23.9602 130.902 24.3498 130.753 24.6815C130.603 25.0131 130.396 25.2784 130.123 25.4939C129.857 25.7095 129.542 25.867 129.169 25.9748C128.804 26.0826 128.406 26.1323 127.975 26.1323C127.685 26.1323 127.436 26.1323 127.221 26.124C127.005 26.124 126.798 26.1157 126.599 26.1157V21.0335C126.806 21.0335 127.063 21.0335 127.37 21.0253C127.677 21.0253 127.959 21.017 128.232 21.017C128.655 21.017 129.037 21.0667 129.376 21.1579C129.716 21.2491 130.007 21.3983 130.239 21.6056C130.471 21.8129 130.653 22.0699 130.786 22.3849C130.918 22.7 130.977 23.0731 130.977 23.5125ZM130.189 23.5622C130.189 22.2523 129.501 21.5973 128.116 21.5973C128 21.5973 127.876 21.5973 127.735 21.5973C127.602 21.5973 127.47 21.6056 127.345 21.6222V25.5022C127.436 25.5022 127.552 25.5188 127.693 25.5188C127.834 25.5188 127.959 25.5271 128.066 25.5271C128.382 25.5271 128.663 25.4857 128.929 25.411C129.194 25.3364 129.41 25.2121 129.6 25.0545C129.783 24.897 129.932 24.6897 130.031 24.441C130.131 24.1923 130.189 23.9021 130.189 23.5622Z" fill="black"/>
<path d="M132.369 26.1075V21.0253H135.13V21.5973H133.107V23.2057H135.039V23.7695H133.107V25.5105H135.13V26.1075H132.369Z" fill="black"/>
<path d="M138.844 26.1075V21.0253H139.591V25.4857H141.473V26.1075H138.844Z" fill="black"/>
<path d="M146.911 24.1757C146.911 24.441 146.87 24.698 146.787 24.9385C146.704 25.1789 146.571 25.3945 146.397 25.5768C146.223 25.7592 145.991 25.9085 145.709 26.0163C145.436 26.124 145.096 26.1821 144.706 26.1821C144.018 26.1821 143.487 26.0245 143.139 25.7095C142.783 25.3945 142.608 24.9468 142.608 24.3498V21.0087H143.355V24.242C143.355 24.6897 143.479 25.0214 143.728 25.2369C143.976 25.4525 144.325 25.552 144.772 25.552C145.286 25.552 145.651 25.4193 145.858 25.154C146.074 24.8887 146.173 24.5488 146.173 24.126V21.0087H146.92V24.1591" fill="black"/>
<path d="M152.01 26.1075L150.559 24.068L149.092 26.1075H148.171L150.136 23.5788L148.254 21.0253H149.199L150.609 23.0233L152.051 21.0253H152.922L151.048 23.5374L153.005 26.1075H152.01Z" fill="black"/>
<path d="M154.331 26.1075V21.0253H157.092V21.5973H155.069V23.2057H157.001V23.7695H155.069V25.5105H157.092V26.1075H154.331Z" fill="black"/>
<path d="M163.99 26.1075L163.567 23.1394C163.526 22.8492 163.501 22.6005 163.476 22.3932C163.451 22.186 163.435 22.0202 163.426 21.8792H163.418C163.385 21.987 163.352 22.1197 163.31 22.2689C163.269 22.4181 163.219 22.5756 163.161 22.7497L162 26.1075H161.188L160.11 22.9653C160.044 22.7829 159.977 22.5922 159.919 22.4015C159.861 22.2026 159.812 22.0367 159.787 21.8875H159.778C159.762 22.0865 159.745 22.2855 159.729 22.4844C159.712 22.6834 159.679 22.9156 159.646 23.1643L159.264 26.1158H158.518L159.281 21.0336H160.201L161.321 24.3084C161.387 24.4825 161.445 24.6566 161.495 24.8141C161.544 24.9799 161.578 25.1292 161.611 25.2701H161.619C161.66 25.1043 161.702 24.9468 161.743 24.8141C161.785 24.6815 161.835 24.524 161.893 24.3416L163.062 21.0336H164.032L164.778 26.1158H163.998" fill="black"/>
<path d="M169.926 24.582C169.926 24.7312 169.901 24.897 169.843 25.0711C169.785 25.2535 169.686 25.4193 169.537 25.5768C169.387 25.7344 169.18 25.867 168.915 25.9665C168.649 26.0743 168.301 26.124 167.878 26.124C167.713 26.124 167.514 26.124 167.273 26.124C167.033 26.124 166.776 26.124 166.502 26.1074V21.0252C166.701 21.0252 166.933 21.0252 167.199 21.017C167.472 21.017 167.771 21.0087 168.111 21.0087C168.724 21.0087 169.164 21.1247 169.421 21.3486C169.686 21.5724 169.818 21.8709 169.818 22.2357C169.818 22.5093 169.736 22.7497 169.578 22.9487C169.421 23.1477 169.188 23.3052 168.898 23.4213C169.246 23.5042 169.512 23.6451 169.678 23.8524C169.843 24.0679 169.926 24.3084 169.926 24.5903M169.047 22.3352C169.047 22.1113 168.973 21.9372 168.815 21.788C168.666 21.6471 168.376 21.5724 167.953 21.5724H167.588C167.464 21.5724 167.356 21.5724 167.24 21.5807V23.214C167.34 23.214 167.431 23.2223 167.522 23.2223H167.704C168.127 23.2223 168.459 23.1477 168.699 23.0067C168.94 22.8575 169.056 22.6336 169.056 22.3352M169.155 24.6068C169.155 24.441 169.122 24.3001 169.047 24.1923C168.973 24.0845 168.873 23.9933 168.741 23.927C168.608 23.8607 168.459 23.8109 168.285 23.7861C168.111 23.7612 167.92 23.7446 167.721 23.7446H167.497C167.398 23.7446 167.315 23.7446 167.24 23.7529V25.5105C167.315 25.5271 167.406 25.5354 167.514 25.5437C167.621 25.552 167.754 25.5603 167.912 25.5603C168.343 25.5603 168.658 25.4691 168.857 25.295C169.056 25.1209 169.155 24.8887 169.155 24.6068Z" fill="black"/>
<path d="M175.979 23.529C175.979 23.9518 175.912 24.3332 175.78 24.6648C175.647 24.9964 175.464 25.2783 175.241 25.5022C175.017 25.726 174.743 25.9001 174.436 26.0162C174.13 26.1323 173.79 26.1903 173.433 26.1903C173.027 26.1903 172.671 26.124 172.372 25.9996C172.074 25.8752 171.825 25.6928 171.634 25.4607C171.444 25.2286 171.303 24.955 171.203 24.6482C171.112 24.3332 171.062 23.9932 171.062 23.6202C171.062 23.1973 171.128 22.8243 171.269 22.4926C171.41 22.161 171.584 21.8874 171.817 21.6553C172.04 21.4314 172.314 21.2573 172.621 21.133C172.928 21.0086 173.251 20.9506 173.599 20.9506C174.345 20.9506 174.934 21.1744 175.357 21.6138C175.78 22.0532 175.995 22.6916 175.995 23.529M175.191 23.6036C175.191 22.9403 175.042 22.4346 174.743 22.0947C174.445 21.7548 174.038 21.5807 173.516 21.5807C173.292 21.5807 173.085 21.6221 172.878 21.705C172.671 21.7879 172.496 21.9123 172.347 22.0781C172.198 22.2439 172.074 22.4512 171.982 22.6916C171.891 22.932 171.85 23.2139 171.85 23.5373C171.85 23.8109 171.875 24.0679 171.933 24.3083C171.991 24.5487 172.082 24.7643 172.215 24.9467C172.347 25.1291 172.513 25.2783 172.72 25.3861C172.928 25.4939 173.185 25.5436 173.483 25.5436C173.723 25.5436 173.947 25.5022 174.155 25.4193C174.362 25.3363 174.544 25.212 174.693 25.0545C174.843 24.8886 174.967 24.6897 175.058 24.4492C175.149 24.2088 175.191 23.9269 175.191 23.6036Z" fill="black"/>
<path d="M181.683 24.1757C181.683 24.441 181.641 24.698 181.558 24.9385C181.475 25.1789 181.343 25.3945 181.168 25.5768C180.994 25.7592 180.762 25.9085 180.48 26.0163C180.198 26.124 179.867 26.1821 179.477 26.1821C178.789 26.1821 178.258 26.0245 177.91 25.7095C177.554 25.3945 177.38 24.9468 177.38 24.3498V21.0087H178.126V24.242C178.126 24.6897 178.25 25.0214 178.499 25.2369C178.748 25.4525 179.096 25.552 179.544 25.552C180.058 25.552 180.422 25.4193 180.63 25.154C180.845 24.8887 180.945 24.5488 180.945 24.126V21.0087H181.691V24.1591" fill="black"/>
<path d="M186.143 26.1074L184.352 23.8524H184.319V26.1074H183.573V21.0252C183.722 21.0252 183.913 21.017 184.153 21.0087C184.394 21.0087 184.659 21.0087 184.957 21.0087C185.546 21.0087 185.994 21.1164 186.3 21.3403C186.607 21.5641 186.765 21.8875 186.765 22.3186C186.765 22.5424 186.723 22.7497 186.64 22.9238C186.557 23.0979 186.441 23.2472 186.3 23.3715C186.151 23.4959 185.985 23.5954 185.786 23.6617C185.587 23.728 185.372 23.7695 185.14 23.7861C185.214 23.8607 185.281 23.9353 185.364 24.0265C185.438 24.1177 185.521 24.2172 185.604 24.3167L187.08 26.1074H186.143ZM186.002 22.4098C186.002 22.1279 185.902 21.9206 185.695 21.788C185.496 21.6553 185.214 21.5807 184.866 21.5807C184.742 21.5807 184.642 21.5807 184.551 21.5807C184.468 21.5807 184.385 21.589 184.319 21.6056V23.3135C184.394 23.3135 184.485 23.3218 184.584 23.3301C184.684 23.3301 184.791 23.3301 184.891 23.3301C185.231 23.3301 185.496 23.2472 185.695 23.0813C185.894 22.9155 185.994 22.6917 185.994 22.4015" fill="black"/>
<path d="M192.311 25.8752C192.038 25.9747 191.756 26.0411 191.466 26.0991C191.175 26.1488 190.869 26.1737 190.537 26.1737C190.156 26.1737 189.799 26.1157 189.484 26.0079C189.169 25.9001 188.887 25.7343 188.655 25.527C188.423 25.3115 188.249 25.0545 188.116 24.7394C187.992 24.4244 187.925 24.0679 187.925 23.6533C187.925 23.272 187.992 22.9238 188.116 22.5921C188.249 22.2605 188.431 21.9786 188.672 21.7382C188.912 21.4978 189.202 21.3071 189.55 21.1661C189.899 21.0252 190.288 20.9589 190.719 20.9589C190.976 20.9589 191.225 20.9754 191.474 21.0086C191.723 21.0418 191.971 21.0998 192.22 21.1827L192.112 21.846C191.88 21.7548 191.64 21.6884 191.408 21.6387C191.175 21.589 190.935 21.5641 190.695 21.5641C190.437 21.5641 190.189 21.6055 189.948 21.6884C189.708 21.7714 189.501 21.8957 189.318 22.0615C189.136 22.2273 188.995 22.4346 188.887 22.6916C188.779 22.9403 188.73 23.2388 188.73 23.5787C188.73 23.8938 188.779 24.1674 188.871 24.4161C188.962 24.6648 189.094 24.8638 189.269 25.0296C189.434 25.1954 189.642 25.3198 189.874 25.411C190.114 25.5022 190.371 25.5436 190.661 25.5436C190.827 25.5436 190.993 25.527 191.15 25.5022C191.308 25.4773 191.457 25.4441 191.582 25.4027V23.5207H192.328V25.867" fill="black"/>
<path d="M57.8608 36.5537L57.1064 31.4715H56.3519L55.1663 34.9536C55.1 35.136 55.0503 35.2936 55.0005 35.4262C54.9591 35.5589 54.9176 35.7164 54.8845 35.8822H54.8679C54.843 35.7413 54.8015 35.592 54.7518 35.4262C54.7021 35.2604 54.644 35.0863 54.5777 34.8956L53.417 31.4633H52.6874L51.9661 36.5455H52.5631L52.9278 33.4779C52.961 33.2209 52.9859 32.9805 53.0108 32.7732C53.0356 32.5659 53.0522 32.3504 53.0605 32.1514C53.0937 32.3089 53.1351 32.4747 53.1932 32.6654C53.2512 32.8561 53.3175 33.0385 53.3838 33.2292L54.5114 36.5537H55.1663L56.3519 32.997C56.4099 32.8229 56.4597 32.6654 56.5011 32.5162C56.5426 32.3752 56.5758 32.2509 56.6006 32.1431H56.6172C56.6338 32.284 56.6504 32.4499 56.6752 32.6488C56.7001 32.8478 56.7333 33.1048 56.7747 33.4116L57.2224 36.5455H57.8359" fill="black"/>
<path d="M59.7013 31.7534C59.7013 31.6457 59.6599 31.5545 59.5853 31.4798C59.5107 31.4052 59.4195 31.3638 59.3117 31.3638C59.2039 31.3638 59.1044 31.4052 59.0298 31.4798C58.9552 31.5545 58.9137 31.6457 58.9137 31.7534C58.9137 31.8612 58.9552 31.9524 59.0298 32.027C59.1044 32.1016 59.1956 32.1348 59.3117 32.1348C59.4278 32.1348 59.5107 32.1016 59.5853 32.027C59.6599 31.9524 59.7013 31.8612 59.7013 31.7534ZM59.5853 36.5537V32.8146H59.0215V36.5537H59.5853Z" fill="black"/>
<path d="M63.9877 36.5537V33.9422C63.9877 33.7763 63.9711 33.6188 63.9296 33.4779C63.8882 33.3286 63.8301 33.2043 63.7472 33.0965C63.6643 32.9887 63.5483 32.8975 63.4073 32.8395C63.2664 32.7732 63.084 32.7483 62.8684 32.7483C62.5368 32.7483 62.2549 32.8312 62.0311 32.997C61.7989 33.1628 61.6331 33.3867 61.5336 33.652H61.517C61.5336 33.5276 61.5502 33.395 61.5585 33.2374C61.5668 33.0799 61.5751 32.939 61.5751 32.8229H61.0196V36.562H61.5834V34.7629C61.5834 34.5391 61.6082 34.3401 61.6663 34.1494C61.7243 33.9587 61.7989 33.7929 61.9067 33.6603C62.0062 33.5193 62.1305 33.4115 62.2715 33.3369C62.4124 33.2623 62.5617 33.2209 62.7275 33.2209C63.0011 33.2209 63.1835 33.3038 63.283 33.4613C63.3824 33.6188 63.4322 33.851 63.4322 34.1494V36.5703H63.996" fill="black"/>
<path d="M66.0935 31.7534C66.0935 31.6457 66.052 31.5545 65.9774 31.4798C65.9028 31.4052 65.8116 31.3638 65.7038 31.3638C65.5961 31.3638 65.4966 31.4052 65.422 31.4798C65.3473 31.5545 65.3059 31.6457 65.3059 31.7534C65.3059 31.8612 65.3473 31.9524 65.422 32.027C65.4966 32.1016 65.5878 32.1348 65.7038 32.1348C65.8199 32.1348 65.9028 32.1016 65.9774 32.027C66.052 31.9524 66.0935 31.8612 66.0935 31.7534ZM65.9857 36.5537V32.8146H65.422V36.5537H65.9857Z" fill="black"/>
<path d="M69.5424 35.4345C69.5424 35.2272 69.501 35.0531 69.4098 34.937C69.3186 34.8127 69.2025 34.7132 69.0699 34.6469C68.9372 34.5722 68.788 34.5142 68.6305 34.4727C68.4729 34.4313 68.3237 34.3815 68.1911 34.3318C68.0584 34.2821 67.9423 34.2157 67.8511 34.1328C67.7599 34.0499 67.7185 33.9339 67.7185 33.7846C67.7185 33.6022 67.7848 33.453 67.9258 33.3452C68.0584 33.2374 68.2657 33.1877 68.5393 33.1877C68.7963 33.1877 69.0616 33.2291 69.3186 33.312L69.3352 32.8229C69.2191 32.798 69.0947 32.7814 68.9704 32.7649C68.846 32.7483 68.7217 32.74 68.6056 32.74C68.3734 32.74 68.1579 32.7649 67.9755 32.8229C67.7931 32.8809 67.6356 32.9555 67.5195 33.055C67.4034 33.1545 67.3039 33.2706 67.2376 33.4032C67.1713 33.5359 67.1464 33.6851 67.1464 33.8427C67.1464 34.0665 67.1879 34.2406 67.2791 34.365C67.3703 34.4893 67.4863 34.5971 67.619 34.6634C67.7516 34.738 67.9009 34.7961 68.0584 34.8375C68.2159 34.879 68.3569 34.9287 68.4978 34.9702C68.6305 35.0199 68.7465 35.078 68.8377 35.1609C68.9289 35.2438 68.9704 35.3599 68.9704 35.5091C68.9704 35.7081 68.8875 35.8573 68.7134 35.9734C68.5393 36.0894 68.3237 36.1392 68.0501 36.1392C67.9009 36.1392 67.7599 36.1309 67.6107 36.106C67.4615 36.0811 67.3288 36.048 67.2128 36.0148L67.1962 36.5371C67.3122 36.562 67.4366 36.5786 67.5693 36.5952C67.7019 36.6117 67.8428 36.6117 67.9838 36.6117C68.2325 36.6117 68.4481 36.5786 68.6388 36.5205C68.8294 36.4625 68.9952 36.3796 69.1279 36.2718C69.2606 36.164 69.3683 36.0397 69.4347 35.8987C69.501 35.7578 69.5424 35.6003 69.5424 35.4345Z" fill="black"/>
<path d="M72.5022 36.5371V36.0479C72.4276 36.0728 72.3447 36.0894 72.2535 36.0977C72.1623 36.106 72.0628 36.1143 71.9716 36.1143C71.8638 36.1143 71.7726 36.0977 71.698 36.0728C71.6234 36.0479 71.5654 36.0065 71.5239 35.9402C71.4825 35.8738 71.4493 35.7909 71.4327 35.6832C71.4161 35.5754 71.4078 35.4344 71.4078 35.2686V33.254H72.5105V32.8063H71.4078V31.4052L70.8441 31.5627V32.8063H70.0316V33.254H70.8441V35.5008C70.8441 35.6997 70.8607 35.8655 70.8855 35.9982C70.9187 36.1391 70.9684 36.2469 71.0431 36.3381C71.1177 36.4293 71.2172 36.4956 71.3415 36.5371C71.4659 36.5785 71.6234 36.6034 71.8141 36.6034C71.9302 36.6034 72.0462 36.6034 72.1706 36.5868C72.2949 36.5703 72.4027 36.5537 72.5022 36.5288" fill="black"/>
<path d="M76.2911 34.2904C76.2911 34.0831 76.2662 33.8841 76.2082 33.7017C76.1501 33.5193 76.0672 33.3452 75.9511 33.2126C75.8351 33.0716 75.6775 32.9638 75.4952 32.8809C75.3128 32.798 75.0889 32.7566 74.8319 32.7566C74.5749 32.7566 74.3427 32.8063 74.1355 32.9058C73.9282 33.0053 73.7624 33.138 73.6215 33.3121C73.4805 33.4862 73.3727 33.6934 73.2981 33.9339C73.2235 34.1743 73.1903 34.4313 73.1903 34.7132C73.1903 35.3682 73.3396 35.8573 73.6297 36.1641C73.9199 36.4791 74.351 36.6283 74.9231 36.6283C75.1552 36.6283 75.3791 36.6118 75.5864 36.5703C75.7936 36.5289 75.9843 36.4708 76.1584 36.4045L76.1087 35.9236C75.9677 35.99 75.8019 36.048 75.6112 36.0977C75.4205 36.1392 75.2216 36.1641 75.0309 36.1641C74.608 36.1641 74.293 36.0397 74.0774 35.791C73.8619 35.5423 73.7707 35.136 73.7873 34.5722H76.2828C76.2911 34.5142 76.2994 34.4645 76.2994 34.423V34.2987M75.7024 34.1328H73.8038C73.8453 33.8427 73.9614 33.6022 74.1355 33.4281C74.3096 33.254 74.5334 33.1628 74.7987 33.1628C75.0889 33.1628 75.3128 33.254 75.4703 33.4281C75.6361 33.6022 75.7107 33.8344 75.7024 34.1245M75.2464 31.8778L74.2681 31.0404L73.9531 31.4301L74.9894 32.1928L75.2464 31.8778Z" fill="black"/>
<path d="M79.2094 32.74C79.0104 32.7234 78.8446 32.74 78.6953 32.7814C78.5461 32.8312 78.4218 32.9058 78.314 33.0053C78.2062 33.1048 78.115 33.2209 78.0487 33.3535C77.9823 33.4862 77.9243 33.6188 77.8911 33.7598C77.916 33.5939 77.9326 33.4281 77.9492 33.254C77.9658 33.0799 77.9741 32.939 77.9741 32.8063H77.4186V36.5454H77.9823V35.0448C77.9823 34.4147 78.0818 33.9421 78.2808 33.6437C78.4798 33.3452 78.7865 33.2209 79.2011 33.2955L79.226 32.74" fill="black"/>
<path d="M82.8739 34.2904C82.8739 34.0831 82.849 33.8841 82.791 33.7017C82.7329 33.511 82.65 33.3452 82.534 33.2126C82.4179 33.0716 82.2604 32.9639 82.078 32.881C81.8956 32.798 81.6717 32.7566 81.4147 32.7566C81.1577 32.7566 80.9256 32.8063 80.7183 32.9058C80.511 33.0053 80.3452 33.138 80.2043 33.3121C80.0633 33.4862 79.9556 33.6934 79.8809 33.9339C79.8063 34.1743 79.7732 34.4313 79.7732 34.7132C79.7732 35.3682 79.9224 35.8573 80.2126 36.1641C80.5027 36.4791 80.9339 36.6284 81.5059 36.6284C81.7381 36.6284 81.9619 36.6118 82.1692 36.5703C82.3764 36.5289 82.5671 36.4708 82.7412 36.4045L82.6915 35.9236C82.5505 35.99 82.3847 36.048 82.194 36.0977C82.0034 36.1392 81.8044 36.1641 81.6137 36.1641C81.1909 36.1641 80.8758 36.0397 80.6603 35.791C80.4447 35.5423 80.3535 35.136 80.3701 34.5723H82.8656C82.8739 34.5142 82.8822 34.4645 82.8822 34.423V34.2987M82.2852 34.1328H80.3867C80.4281 33.8427 80.5442 33.6022 80.7183 33.4281C80.8924 33.254 81.1163 33.1628 81.3816 33.1628C81.6717 33.1628 81.8956 33.254 82.0531 33.4281C82.2189 33.6022 82.2935 33.8344 82.2852 34.1246" fill="black"/>
<path d="M88.5116 36.5537V31.057H87.9478V32.8063C87.8151 32.7981 87.6991 32.7898 87.5913 32.7815C87.4835 32.7815 87.3674 32.7732 87.2597 32.7732C86.9695 32.7732 86.7042 32.8229 86.472 32.9141C86.2399 33.0053 86.0326 33.138 85.8668 33.3204C85.701 33.4945 85.5684 33.7183 85.4772 33.9753C85.386 34.2323 85.3445 34.5308 85.3445 34.8624C85.3445 35.4096 85.4606 35.8407 85.6844 36.1558C85.9083 36.4708 86.2565 36.6284 86.7208 36.6284C87.0192 36.6284 87.2845 36.5455 87.5084 36.3879C87.7322 36.2304 87.898 36.0148 88.0058 35.7413H88.0224C87.9975 35.8656 87.981 35.9983 87.9727 36.1558C87.9644 36.3133 87.9561 36.446 87.9561 36.562H88.5198M87.9395 34.6137C87.9395 34.7795 87.9146 34.9536 87.8732 35.136C87.8317 35.3184 87.7571 35.4842 87.6659 35.6335C87.5747 35.7827 87.4586 35.9071 87.3177 36.0066C87.1768 36.106 87.0192 36.1558 86.8285 36.1558C86.5218 36.1558 86.2897 36.0397 86.1487 35.7993C86.0078 35.5672 85.9332 35.2355 85.9332 34.8044C85.9332 34.2406 86.0492 33.8344 86.2814 33.5857C86.5135 33.3369 86.8203 33.2126 87.2016 33.2126C87.4338 33.2126 87.6825 33.2458 87.9312 33.3038V34.622" fill="black"/>
<path d="M89.8132 32.8229C90.0785 32.5742 90.2692 32.3338 90.3852 32.1099C90.5013 31.8861 90.5676 31.6871 90.5759 31.5213C90.5759 31.3472 90.5511 31.2145 90.4682 31.1151C90.3852 31.0156 90.294 30.9658 90.1697 30.9658C90.0951 30.9658 90.0287 30.9824 89.979 31.0239C89.921 31.0653 89.8795 31.1068 89.8546 31.1648C89.8298 31.2228 89.8132 31.2892 89.8215 31.3555C89.8215 31.4218 89.8546 31.4881 89.8961 31.5462C89.9293 31.5959 89.9541 31.6539 89.9707 31.7203C89.9873 31.7866 89.979 31.8695 89.9624 31.9524C89.9375 32.0436 89.8961 32.1348 89.8381 32.2426C89.78 32.3504 89.6888 32.4664 89.5728 32.5908L89.8215 32.8064" fill="black"/>
<path d="M94.3233 36.5537V36.0728H92.3419V34.166H94.2238V33.7017H92.3419V31.944H94.3233V31.4798H91.7615V36.562H94.3233M93.8673 30.2859L93.5606 29.8962L92.5823 30.7336L92.831 31.0486L93.8673 30.2859Z" fill="black"/>
<path d="M97.4324 36.5371V36.0479C97.3577 36.0728 97.2748 36.0894 97.1836 36.0977C97.0924 36.106 96.993 36.1143 96.9018 36.1143C96.794 36.1143 96.7028 36.0977 96.6282 36.0728C96.5535 36.0479 96.4955 36.0065 96.4541 35.9402C96.4126 35.8738 96.3794 35.7909 96.3629 35.6832C96.3463 35.5754 96.338 35.4344 96.338 35.2686V33.254H97.4406V32.8063H96.338V31.4052L95.7742 31.5627V32.8063H94.9617V33.254H95.7742V35.5008C95.7742 35.6997 95.7908 35.8655 95.8157 35.9982C95.8488 36.1391 95.8986 36.2469 95.9732 36.3381C96.0478 36.4293 96.1473 36.4956 96.2717 36.5371C96.396 36.5785 96.5535 36.6034 96.7442 36.6034C96.8603 36.6034 96.9764 36.6034 97.1007 36.5868C97.2251 36.5703 97.3329 36.5537 97.4324 36.5288" fill="black"/>
<path d="M101.022 36.5537C101.014 36.3879 101.006 36.2055 101.006 36.0148V33.967C101.006 33.7929 100.989 33.6271 100.948 33.4779C100.906 33.3286 100.84 33.196 100.732 33.0882C100.633 32.9804 100.492 32.8975 100.326 32.8395C100.152 32.7815 99.9444 32.7483 99.6874 32.7483C99.4304 32.7483 99.1983 32.7732 98.9827 32.8312C98.7672 32.8809 98.5682 32.9473 98.3941 33.0302L98.4438 33.5276C98.6096 33.4198 98.8003 33.3452 99.0076 33.2872C99.2149 33.2292 99.4138 33.2043 99.5962 33.2043C99.9196 33.2043 100.143 33.2789 100.268 33.4364C100.392 33.5857 100.45 33.8095 100.45 34.0914V34.3981C100.085 34.3981 99.7538 34.4313 99.4719 34.4976C99.19 34.564 98.9496 34.6552 98.7589 34.7712C98.5682 34.8873 98.4189 35.0282 98.3195 35.1858C98.22 35.3516 98.1702 35.5257 98.1702 35.7247C98.1702 36.0231 98.2697 36.2553 98.4604 36.4045C98.6511 36.5537 98.8998 36.6366 99.1983 36.6366C99.3558 36.6366 99.5133 36.6118 99.646 36.5703C99.7869 36.5289 99.9113 36.4625 100.027 36.3879C100.143 36.3133 100.235 36.2221 100.318 36.1143C100.4 36.0148 100.458 35.8988 100.508 35.7827H100.525C100.508 35.8905 100.492 36.0148 100.492 36.1475C100.492 36.2801 100.492 36.4211 100.492 36.5703H101.039M100.442 34.8624C100.442 35.0199 100.417 35.1775 100.359 35.335C100.309 35.4925 100.235 35.6252 100.135 35.7495C100.036 35.8739 99.9196 35.9734 99.7869 36.048C99.6543 36.1226 99.4967 36.1641 99.3309 36.1641C99.1402 36.1641 98.9993 36.1143 98.8832 36.0148C98.7754 35.9153 98.7174 35.7827 98.7174 35.6086C98.7174 35.5174 98.7423 35.4262 98.7837 35.335C98.8252 35.2438 98.9164 35.1526 99.0407 35.078C99.1651 35.0034 99.3392 34.937 99.5631 34.8873C99.7869 34.8375 100.077 34.8127 100.425 34.8127V34.8707" fill="black"/>
<path d="M104.256 36.5371V36.0479C104.181 36.0728 104.098 36.0894 104.007 36.0977C103.916 36.106 103.816 36.1143 103.725 36.1143C103.617 36.1143 103.526 36.0977 103.451 36.0728C103.377 36.0479 103.319 36.0065 103.277 35.9402C103.236 35.8738 103.203 35.7909 103.186 35.6832C103.17 35.5754 103.161 35.4344 103.161 35.2686V33.254H104.264V32.8063H103.161V31.4052L102.597 31.5627V32.8063H101.785V33.254H102.597V35.5008C102.597 35.6997 102.614 35.8655 102.639 35.9982C102.672 36.1391 102.722 36.2469 102.796 36.3381C102.871 36.4293 102.971 36.4956 103.095 36.5371C103.219 36.5785 103.377 36.6034 103.567 36.6034C103.684 36.6034 103.8 36.6034 103.924 36.5868C104.048 36.5703 104.156 36.5537 104.256 36.5288" fill="black"/>
</g>
<defs>
<clipPath id="clip0_93_129">
<rect width="198.455" height="47" fill="white"/>
</clipPath>
</defs>
</svg>
